<svg width="15" height="15" viewBox="0 0 15 15" fill="none" xmlns="http://www.w3.org/2000/svg">
<path d="M11.7495 8.9375V13.9375M14.2495 11.4375H9.24951M4.87451 4.5625H10.9683C12.2851 4.5625 12.9433 4.5625 13.4164 4.87875C13.6209 5.01546 13.7965 5.19109 13.9333 5.39563C14.2239 5.83 14.247 6.5525 14.2489 7.6875M7.99951 4.5625L7.60389 3.77062C7.27576 3.11437 6.97576 2.45437 6.24889 2.18187C5.93076 2.0625 5.56701 2.0625 4.83951 2.0625C3.70451 2.0625 3.13701 2.0625 2.71076 2.3C2.40706 2.46946 2.15647 2.72005 1.98701 3.02375C1.74951 3.45 1.74951 4.0175 1.74951 5.1525V7.0625C1.74951 10.0088 1.74951 11.4819 2.66451 12.3969C3.51326 13.2462 4.83951 13.3081 7.37451 13.3125" stroke="white" stroke-linecap="round" stroke-linejoin="round"/>
</svg>
