<svg width="24" height="25" viewBox="0 0 24 25" fill="none" xmlns="http://www.w3.org/2000/svg">
<path d="M4.07692 19.5H18.9231C19.5154 19.5 20 18.975 20 18.3333C20 17.6917 19.5154 17.1667 18.9231 17.1667H4.07692C3.48462 17.1667 3 17.6917 3 18.3333C3 18.975 3.48462 19.5 4.07692 19.5ZM4.07692 13.6667H15.6923C16.2846 13.6667 16.7692 13.1417 16.7692 12.5C16.7692 11.8583 16.2846 11.3333 15.6923 11.3333H4.07692C3.48462 11.3333 3 11.8583 3 12.5C3 13.1417 3.48462 13.6667 4.07692 13.6667ZM3 6.66667C3 7.30833 3.48462 7.83333 4.07692 7.83333H18.9231C19.5154 7.83333 20 7.30833 20 6.66667C20 6.025 19.5154 5.5 18.9231 5.5H4.07692C3.48462 5.5 3 6.025 3 6.66667Z" fill="white"/>
</svg>
