<svg width="15" height="15" viewBox="0 0 15 15" fill="none" xmlns="http://www.w3.org/2000/svg">
<g clip-path="url(#clip0_695_2481)">
<path d="M7.99951 12.375H3.62451C3.29299 12.375 2.97505 12.2433 2.74063 12.0089C2.50621 11.7745 2.37451 11.4565 2.37451 11.125V4.25C2.37451 3.91848 2.50621 3.60054 2.74063 3.36612C2.97505 3.1317 3.29299 3 3.62451 3H6.12451L7.99951 4.875H12.3745C12.706 4.875 13.024 5.0067 13.2584 5.24112C13.4928 5.47554 13.6245 5.79348 13.6245 6.125V8.3125M12.3745 14.25V10.5M12.3745 10.5L14.2495 12.375M12.3745 10.5L10.4995 12.375" stroke="white" stroke-linecap="round" stroke-linejoin="round"/>
</g>
<defs>
<clipPath id="clip0_695_2481">
<rect width="15" height="15" fill="white"/>
</clipPath>
</defs>
</svg>
