<svg width="18" height="18" viewBox="0 0 18 18" fill="none" xmlns="http://www.w3.org/2000/svg">
<path fill-rule="evenodd" clip-rule="evenodd" d="M14.6208 2.34975C14.787 2.24978 14.9855 2.21808 15.1745 2.26129C15.3636 2.3045 15.5286 2.41926 15.6348 2.5815L16.3773 3.714C16.4741 3.86195 16.5155 4.03933 16.4943 4.21484C16.473 4.39035 16.3904 4.55271 16.2611 4.67325L16.2588 4.67625L16.2483 4.686L16.2056 4.72575L16.0368 4.887C15.1031 5.79275 14.1977 6.72719 13.3218 7.689C11.6741 9.501 9.71732 11.8725 8.40032 14.1735C8.03282 14.8155 7.13507 14.9535 6.60257 14.3993L1.73882 9.34575C1.66912 9.2733 1.61469 9.18758 1.57878 9.09368C1.54287 8.99978 1.5262 8.89962 1.52977 8.79915C1.53334 8.69868 1.55707 8.59995 1.59955 8.50883C1.64204 8.41772 1.7024 8.33607 1.77707 8.26875L3.24707 6.94275C3.37625 6.82628 3.54189 6.75834 3.71565 6.75054C3.88941 6.74274 4.06047 6.79557 4.19957 6.9L6.68132 8.76075C10.5581 4.938 12.7563 3.471 14.6208 2.34975Z" fill="#046C56"/>
</svg>
