<svg width="24" height="24" viewBox="0 0 24 24" fill="none" xmlns="http://www.w3.org/2000/svg">
<path d="M1.5 5.25C1.5 5.05109 1.57902 4.86032 1.71967 4.71967C1.86032 4.57902 2.05109 4.5 2.25 4.5H21.75C21.9489 4.5 22.1397 4.57902 22.2803 4.71967C22.421 4.86032 22.5 5.05109 22.5 5.25C22.5 5.44891 22.421 5.63968 22.2803 5.78033C22.1397 5.92098 21.9489 6 21.75 6H2.25C2.05109 6 1.86032 5.92098 1.71967 5.78033C1.57902 5.63968 1.5 5.44891 1.5 5.25ZM7.281 19.281L10.281 16.281C10.4218 16.1402 10.5009 15.9492 10.5009 15.75C10.5009 15.5508 10.4218 15.3598 10.281 15.219C10.1402 15.0782 9.94916 14.9991 9.75 14.9991C9.55084 14.9991 9.35983 15.0782 9.219 15.219L7.5 16.9395V9.75C7.5 9.55109 7.42098 9.36032 7.28033 9.21967C7.13968 9.07902 6.94891 9 6.75 9C6.55109 9 6.36032 9.07902 6.21967 9.21967C6.07902 9.36032 6 9.55109 6 9.75V16.9395L4.281 15.219C4.14017 15.0782 3.94916 14.9991 3.75 14.9991C3.55084 14.9991 3.35983 15.0782 3.219 15.219C3.07817 15.3598 2.99905 15.5508 2.99905 15.75C2.99905 15.9492 3.07817 16.1402 3.219 16.281L6.219 19.281C6.28867 19.3508 6.37143 19.4063 6.46255 19.4441C6.55367 19.4819 6.65135 19.5013 6.75 19.5013C6.84865 19.5013 6.94633 19.4819 7.03745 19.4441C7.12857 19.4063 7.21133 19.3508 7.281 19.281ZM12.75 9C12.5511 9 12.3603 9.07902 12.2197 9.21967C12.079 9.36032 12 9.55109 12 9.75C12 9.94891 12.079 10.1397 12.2197 10.2803C12.3603 10.421 12.5511 10.5 12.75 10.5H21.75C21.9489 10.5 22.1397 10.421 22.2803 10.2803C22.421 10.1397 22.5 9.94891 22.5 9.75C22.5 9.55109 22.421 9.36032 22.2803 9.21967C22.1397 9.07902 21.9489 9 21.75 9H12.75Z" fill="#046C56"/>
</svg>
