<svg width="24" height="24" viewBox="0 0 24 24" fill="none" xmlns="http://www.w3.org/2000/svg">
<path d="M10.5184 8.4913C10.4276 8.43453 10.3232 8.40311 10.2161 8.4003C10.1091 8.39749 10.0032 8.42339 9.90953 8.47531C9.81585 8.52723 9.73778 8.60328 9.68342 8.69556C9.62906 8.78784 9.60039 8.89299 9.60039 9.0001V15.1801C9.60037 15.2885 9.62975 15.395 9.68539 15.488C9.74103 15.5811 9.82085 15.6574 9.91638 15.7087C10.0119 15.76 10.1196 15.7845 10.2279 15.7796C10.3362 15.7746 10.4412 15.7404 10.5316 15.6805L15.3316 12.5017C15.4152 12.4463 15.4835 12.3709 15.5304 12.2822C15.5773 12.1936 15.6013 12.0947 15.6001 11.9944C15.5989 11.8942 15.5726 11.7958 15.5236 11.7084C15.4746 11.6209 15.4045 11.5471 15.3196 11.4937L10.5184 8.4913ZM5.40039 3.6001C4.60474 3.6001 3.84168 3.91617 3.27907 4.47878C2.71646 5.04139 2.40039 5.80445 2.40039 6.6001V17.4001C2.40039 18.1957 2.71646 18.9588 3.27907 19.5214C3.84168 20.084 4.60474 20.4001 5.40039 20.4001H18.6004C19.396 20.4001 20.1591 20.084 20.7217 19.5214C21.2843 18.9588 21.6004 18.1957 21.6004 17.4001V6.6001C21.6004 5.80445 21.2843 5.04139 20.7217 4.47878C20.1591 3.91617 19.396 3.6001 18.6004 3.6001H5.40039ZM3.60039 6.6001C3.60039 6.12271 3.79003 5.66487 4.1276 5.32731C4.46516 4.98974 4.923 4.8001 5.40039 4.8001H18.6004C19.0778 4.8001 19.5356 4.98974 19.8732 5.32731C20.2107 5.66487 20.4004 6.12271 20.4004 6.6001V17.4001C20.4004 17.8775 20.2107 18.3353 19.8732 18.6729C19.5356 19.0105 19.0778 19.2001 18.6004 19.2001H5.40039C4.923 19.2001 4.46516 19.0105 4.1276 18.6729C3.79003 18.3353 3.60039 17.8775 3.60039 17.4001V6.6001Z" fill="#046C56"/>
</svg>
