<svg width="16" height="16" viewBox="0 0 16 16" fill="none" xmlns="http://www.w3.org/2000/svg">
<path d="M8.8272 5.29342V6.79321L7.52304 5.48904L6.49601 4.46201L7.71866 3.23936C7.78387 3.17415 7.85451 3.12785 7.93059 3.10046C8.00667 3.07308 8.08818 3.05982 8.17512 3.06069C8.26207 3.06156 8.34358 3.07525 8.41965 3.10177C8.49573 3.12829 8.56637 3.17437 8.63158 3.24001L10.9791 5.58751C11.1095 5.71793 11.1721 5.87008 11.1669 6.04397C11.1617 6.21786 11.0991 6.37001 10.9791 6.50043C10.8487 6.63084 10.6939 6.69888 10.5148 6.70453C10.3357 6.71018 10.1807 6.64758 10.0499 6.51673L8.8272 5.29342ZM7.52304 7.34748L8.8272 8.65165V9.95582C8.8272 10.1406 8.7646 10.2956 8.6394 10.4208C8.5142 10.546 8.35944 10.6083 8.17512 10.6079C7.9908 10.6075 7.83604 10.5449 7.71084 10.4201C7.58564 10.2953 7.52304 10.1406 7.52304 9.95582V7.34748ZM11.5333 13.2162H4.26262C3.90397 13.2162 3.59706 13.0886 3.34188 12.8335C3.0867 12.5783 2.95889 12.2711 2.95845 11.9121V10.6079C2.95845 10.4231 3.02105 10.2684 3.14625 10.1436C3.27145 10.0189 3.42621 9.95625 3.61054 9.95582C3.79486 9.95538 3.94984 10.018 4.07547 10.1436C4.20111 10.2693 4.26349 10.424 4.26262 10.6079V11.9121H10.2292L1.70319 3.38608C1.57278 3.25566 1.50757 3.1009 1.50757 2.92179C1.50757 2.74269 1.57278 2.58771 1.70319 2.45686C1.83361 2.32601 1.98859 2.2608 2.16813 2.26123C2.34767 2.26167 2.50243 2.32688 2.63241 2.45686L13.7178 13.5423C13.8482 13.6727 13.9135 13.8248 13.9135 13.9987C13.9135 14.1726 13.8482 14.3248 13.7178 14.4552C13.5874 14.5856 13.4327 14.6508 13.2535 14.6508C13.0744 14.6508 12.9195 14.5856 12.7886 14.4552L11.5333 13.2162ZM13.3918 11.3578L12.2343 10.2003C12.2887 10.1351 12.3567 10.078 12.4384 10.0288C12.5202 9.97973 12.6206 9.95538 12.7397 9.95582C12.9245 9.95582 13.0794 10.0184 13.2046 10.1436C13.3298 10.2688 13.3922 10.4236 13.3918 10.6079V11.3578Z" fill="white"/>
</svg>
