<svg width="200" height="65" viewBox="0 0 200 65" fill="none" xmlns="http://www.w3.org/2000/svg">
<g clip-path="url(#clip0_9_2637)">
<mask id="mask0_9_2637" style="mask-type:luminance" maskUnits="userSpaceOnUse" x="-229" y="-760" width="1349" height="891">
<path d="M-228.206 130.078H1119.59V-759.093H-228.206V130.078Z" fill="white"/>
</mask>
<g mask="url(#mask0_9_2637)">
<path d="M12.5164 37.8516C10.5793 39.66 10.4681 41.2955 10.4681 43.105V43.9227V49.0032H6.2791V43.9227V43.105C6.2791 41.2955 6.16793 39.66 4.23082 37.8516V49.0032H0V34.3417H5.61432C6.75347 35.3114 7.70331 36.6244 8.3736 38.2171C9.01637 36.6454 9.99372 35.3114 11.1329 34.3417H16.7472V49.0032H12.5164V37.8516Z" fill="#046C56"/>
<path d="M22.9605 43.8483C23.0177 41.0032 23.3864 38.8251 24.0105 37.359C24.6345 38.8251 25.0033 41.0032 25.0605 43.8483H22.9605ZM18.7715 49.0037H22.9605V46.5977H25.0605V49.0037H29.2902V46.1465C29.2902 41.132 28.4504 37.2732 25.9289 34.3422H22.1229C19.6091 37.2523 18.7715 41.1111 18.7715 46.1465V49.0037Z" fill="#046C56"/>
<path d="M33.3327 39.8029H30.7275V33.9376H33.3327V39.8029Z" fill="#046C56"/>
<mask id="mask1_9_2637" style="mask-type:luminance" maskUnits="userSpaceOnUse" x="-229" y="-760" width="1349" height="891">
<path d="M-228.206 130.078H1119.59V-759.093H-228.206V130.078Z" fill="white"/>
</mask>
<g mask="url(#mask1_9_2637)">
<path d="M39.0454 43.8483C39.1027 41.0032 39.4714 38.8251 40.0954 37.359C40.7195 38.8251 41.0882 41.0032 41.1443 43.8483H39.0454ZM34.8564 49.0037H39.0454V46.5977H41.1443V49.0037H45.3752V46.1465C45.3752 41.132 44.5343 37.2732 42.0138 34.3422H38.2079C35.694 37.2523 34.8564 41.1111 34.8564 46.1465V49.0037Z" fill="#046C56"/>
<path d="M51.5087 37.1469H52.2021C53.5063 37.1469 53.5613 37.5531 53.5613 38.5161V38.8804V44.4661V44.8293C53.5613 45.8133 53.5063 46.1985 52.2021 46.1985H51.5087V37.1469ZM47.2778 34.3469V48.9985H52.9241C56.3602 48.9985 57.8428 47.8352 57.8428 45.044V38.3026C57.8428 35.5312 56.3602 34.3469 52.9241 34.3469H47.2778Z" fill="#046C56"/>
</g>
<path d="M59.6772 34.3468H68.2919V37.1468H63.9081V39.6034H68.1246V42.3627H63.9081V46.1984H68.4878V48.9984H59.6772V34.3468Z" fill="#046C56"/>
<mask id="mask2_9_2637" style="mask-type:luminance" maskUnits="userSpaceOnUse" x="-229" y="-760" width="1349" height="891">
<path d="M-228.206 130.078H1119.59V-759.093H-228.206V130.078Z" fill="white"/>
</mask>
<g mask="url(#mask2_9_2637)">
<path d="M74.1551 34.342C74.9057 35.2676 75.7092 36.5598 76.5115 38.1953V34.342H80.7005V49.0035H76.5115V46.1407C76.5115 43.6434 75.8192 41.3387 74.4632 39.2728V49.0035H70.2324V34.342H74.1551Z" fill="#046C56"/>
</g>
<path d="M100.398 50.3817L84.2334 34.2168L100.398 18.0507L116.564 34.2168L100.398 50.3817Z" fill="#046C56"/>
<path d="M95.5713 16.052L83.2607 18.0507L95.5713 20.0505L88.2807 30.1697L98.3988 22.8781L100.399 50.3817L102.397 22.8781L112.517 30.1697L105.226 20.0505L117.535 18.0507L105.226 16.052L112.517 5.93275L102.397 13.2244L100.399 0.913879L98.3988 13.2244L88.2807 5.93275L95.5713 16.052Z" fill="#D3A02E"/>
<path d="M88.2803 30.1693L98.3995 22.8787L100.398 50.3813L102.398 22.8787L112.516 30.1693L100.398 18.0513L88.2803 30.1693Z" fill="white"/>
<mask id="mask3_9_2637" style="mask-type:luminance" maskUnits="userSpaceOnUse" x="-229" y="-760" width="1349" height="891">
<path d="M-228.206 130.078H1119.59V-759.093H-228.206V130.078Z" fill="white"/>
</mask>
<g mask="url(#mask3_9_2637)">
<path d="M191.839 36.9945C188.406 36.9945 186.93 38.1678 186.93 40.9392V46.2376H175.541L177.958 42.0233C179.377 39.3829 178.359 36.9945 174.904 36.9945H167.236C163.782 36.9945 162.763 39.3829 164.182 42.0233L166.627 46.2376H154.992V32.8881H150.78V49.0541L199.855 49.0519V36.9945H191.839ZM167.431 39.767H174.71L171.089 46.2376H171.052L167.431 39.767ZM195.643 46.2585H191.192V41.5258V41.156C191.192 40.182 191.248 39.7692 192.57 39.7692H195.643V46.2585Z" fill="#046C56"/>
<path d="M143.147 36.9945H138.064V39.7692H142.417C143.737 39.7692 143.793 41.156 143.793 41.156V41.5258V46.2376H136.469V49.0332H148.055V40.9392C148.055 38.1678 146.579 36.9945 143.147 36.9945Z" fill="#046C56"/>
<path d="M130.357 43.4503C130.357 45.3004 129.564 46.258 127.722 46.258H125.864C124.022 46.258 123.229 45.3004 123.229 43.4503V36.994H119.017V43.4503C119.017 46.7004 120.578 49.0558 126.128 49.0558H127.458C133.008 49.0558 134.569 46.7004 134.569 43.4503V36.994H130.357V43.4503Z" fill="#046C56"/>
</g>
<path d="M128.897 32.881H124.685V35.9287H128.897V32.881Z" fill="#046C56"/>
<mask id="mask4_9_2637" style="mask-type:luminance" maskUnits="userSpaceOnUse" x="-229" y="-760" width="1349" height="891">
<path d="M-228.206 130.078H1119.59V-759.093H-228.206V130.078Z" fill="white"/>
</mask>
<g mask="url(#mask4_9_2637)">
<path d="M106.596 59.36H105.943V58.7414H106.596V59.36ZM105.474 59.36H104.822V58.7414H105.474V59.36ZM105.962 61.099V60.2922H105.363C104.898 60.2922 104.614 60.6378 104.614 61.154C104.614 61.5843 104.868 61.9475 105.268 61.9475C105.7 61.9475 105.962 61.5722 105.962 61.099ZM107.736 62.8688H107.016C106.501 62.8688 106.081 62.5419 105.943 62.051C105.735 62.3306 105.48 62.4637 105.184 62.4637C104.423 62.4637 103.956 61.9365 103.956 61.1595C103.956 60.3285 104.423 59.8145 105.184 59.8145H106.65V61.5722C106.65 62.0015 106.87 62.2392 107.315 62.2392H107.736V62.8688Z" fill="#046C56"/>
</g>
<path d="M107.629 62.8688H108.882V62.2392H107.629V62.8688Z" fill="#046C56"/>
<mask id="mask5_9_2637" style="mask-type:luminance" maskUnits="userSpaceOnUse" x="-229" y="-760" width="1349" height="891">
<path d="M-228.206 130.078H1119.59V-759.093H-228.206V130.078Z" fill="white"/>
</mask>
<g mask="url(#mask5_9_2637)">
<path d="M110.455 64.0861H109.803V63.462H110.455V64.0861ZM110.474 61.8628C110.474 62.5364 110.14 62.8688 109.481 62.8688H108.78V62.2392H109.34C109.557 62.2392 109.695 62.1787 109.759 62.0565C109.789 61.9905 109.808 61.8573 109.808 61.657V60.3483H110.474V61.8628ZM109.333 64.0861H108.681V63.462H109.333V64.0861Z" fill="#046C56"/>
<path d="M113.85 62.8687H111.031V62.2391H113.18C113.18 61.5116 112.876 61.0868 112.278 60.9657C112.093 60.9294 111.891 60.9184 111.678 60.9184V60.3493C112.004 60.3493 112.211 60.3526 112.296 60.3603C112.378 60.3658 112.497 60.3901 112.652 60.4396C113.446 60.6883 113.846 61.2871 113.85 62.2391V62.8687Z" fill="#046C56"/>
<path d="M116.307 62.2389V61.4751C116.273 61.1471 116.071 60.9182 115.727 60.9182C115.333 60.9182 115.086 61.1724 115.086 61.5422C115.086 61.9307 115.364 62.2389 115.72 62.2389H116.307ZM117.787 62.8685H116.978C116.889 63.4815 116.455 63.7842 115.684 63.7842V63.2988C116.03 63.2988 116.25 63.1645 116.343 62.8685H115.708C114.99 62.8685 114.408 62.3105 114.408 61.5785C114.408 60.8455 114.984 60.3491 115.736 60.3491C116.463 60.3491 116.972 60.8686 116.972 61.5961V62.2389H117.787V62.8685Z" fill="#046C56"/>
</g>
<path d="M117.696 62.8688H118.948V62.2392H117.696V62.8688Z" fill="#046C56"/>
<mask id="mask6_9_2637" style="mask-type:luminance" maskUnits="userSpaceOnUse" x="-229" y="-760" width="1349" height="891">
<path d="M-228.206 130.078H1119.59V-759.093H-228.206V130.078Z" fill="white"/>
</mask>
<g mask="url(#mask6_9_2637)">
<path d="M121.959 61.0331C121.692 60.8812 121.401 60.8085 121.097 60.8085C120.796 60.8085 120.487 60.8878 120.184 61.0386C120.558 61.1596 120.895 61.3853 121.193 61.7044C121.33 61.645 121.473 61.536 121.627 61.4007C121.764 61.2675 121.876 61.1475 121.959 61.0331ZM123.283 62.8689H122.019C121.851 62.8689 121.673 62.826 121.49 62.7346C121.336 62.6631 121.212 62.5772 121.111 62.4694C120.676 62.7346 120.243 62.8689 119.798 62.8689H118.799V62.2394H119.787C119.981 62.2394 120.137 62.225 120.25 62.1953C120.392 62.1722 120.533 62.1183 120.676 62.0258C120.588 61.8982 120.415 61.7606 120.172 61.6153C119.929 61.4689 119.691 61.3643 119.471 61.3181V60.7304C119.988 60.4189 120.527 60.2747 121.081 60.2747C121.732 60.2747 122.298 60.4695 122.773 60.8515C122.718 61.0022 122.577 61.2081 122.351 61.4689C122.108 61.743 121.882 61.9477 121.668 62.0886C121.752 62.1656 121.828 62.2085 121.905 62.225C121.935 62.2327 122.024 62.2394 122.167 62.2394H123.283V62.8689Z" fill="#046C56"/>
</g>
<path d="M123.169 62.8688H124.422V62.2392H123.169V62.8688Z" fill="#046C56"/>
<mask id="mask7_9_2637" style="mask-type:luminance" maskUnits="userSpaceOnUse" x="-229" y="-760" width="1349" height="891">
<path d="M-228.206 130.078H1119.59V-759.093H-228.206V130.078Z" fill="white"/>
</mask>
<g mask="url(#mask7_9_2637)">
<path d="M124.245 62.8687V62.2391H124.848C125.187 62.2391 125.354 62.0212 125.354 61.5842V60.3493H126.025V61.56C126.025 61.8869 125.989 62.0993 125.916 62.2028V62.2391H126.535C126.875 62.2391 127.041 62.0344 127.041 61.6195V60.3493H127.712V61.56C127.712 61.9243 127.664 62.1478 127.573 62.2391H128.221C128.56 62.2391 128.725 62.0344 128.725 61.6272V60.3493H129.396V61.549C129.396 61.8077 129.349 62.0388 129.248 62.2391H130.262V62.8687H124.245Z" fill="#046C56"/>
<path d="M131.76 61.8633C131.76 62.5358 131.426 62.8682 130.763 62.8682H130.062V62.2387H130.625C130.845 62.2387 130.983 62.1792 131.048 62.056C131.076 61.991 131.095 61.8578 131.095 61.6564V59.2934H131.76V61.8633Z" fill="#046C56"/>
</g>
<path d="M132.372 62.8688H133.03V59.2884H132.372V62.8688Z" fill="#046C56"/>
<mask id="mask8_9_2637" style="mask-type:luminance" maskUnits="userSpaceOnUse" x="-229" y="-760" width="1349" height="891">
<path d="M-228.206 130.078H1119.59V-759.093H-228.206V130.078Z" fill="white"/>
</mask>
<g mask="url(#mask8_9_2637)">
<path d="M137.475 59.36H136.822V58.7414H137.475V59.36ZM136.353 59.36H135.7V58.7414H136.353V59.36ZM136.84 61.099V60.2922H136.241C135.778 60.2922 135.493 60.6378 135.493 61.154C135.493 61.5843 135.747 61.9475 136.147 61.9475C136.579 61.9475 136.84 61.5722 136.84 61.099ZM138.615 62.8688H137.898C137.379 62.8688 136.959 62.5419 136.822 62.051C136.613 62.3306 136.359 62.4637 136.062 62.4637C135.302 62.4637 134.833 61.9365 134.833 61.1595C134.833 60.3285 135.302 59.8145 136.062 59.8145H137.528V61.5722C137.528 62.0015 137.749 62.2392 138.193 62.2392H138.615V62.8688Z" fill="#046C56"/>
</g>
<path d="M138.509 62.8688H139.76V62.2392H138.509V62.8688Z" fill="#046C56"/>
<path d="M139.685 62.8688H140.937V62.2392H139.685V62.8688Z" fill="#046C56"/>
<mask id="mask9_9_2637" style="mask-type:luminance" maskUnits="userSpaceOnUse" x="-229" y="-760" width="1349" height="891">
<path d="M-228.206 130.078H1119.59V-759.093H-228.206V130.078Z" fill="white"/>
</mask>
<g mask="url(#mask9_9_2637)">
<path d="M142.527 64.0861H141.874V63.462H142.527V64.0861ZM143.518 62.8688H140.782V62.2392H141.417C141.613 62.2392 141.75 62.1787 141.822 62.051C141.868 61.9652 141.891 61.8199 141.891 61.6273V60.3483H142.55V61.5954C142.55 61.9234 142.504 62.1292 142.402 62.2392H143.518V62.8688ZM141.404 64.0861H140.753V63.462H141.404V64.0861Z" fill="#046C56"/>
</g>
<path d="M143.423 62.8688H144.676V62.2392H143.423V62.8688Z" fill="#046C56"/>
<mask id="mask10_9_2637" style="mask-type:luminance" maskUnits="userSpaceOnUse" x="-229" y="-760" width="1349" height="891">
<path d="M-228.206 130.078H1119.59V-759.093H-228.206V130.078Z" fill="white"/>
</mask>
<g mask="url(#mask10_9_2637)">
<path d="M146.208 64.0861H145.561V63.462H146.208V64.0861ZM146.214 61.8628C146.214 62.5364 145.88 62.8688 145.223 62.8688H144.581V62.2392H145.086C145.305 62.2392 145.442 62.1787 145.506 62.0565C145.536 61.9905 145.554 61.8573 145.554 61.657V60.3483H146.214V61.8628Z" fill="#046C56"/>
<path d="M149.175 62.8687H148.114C148.013 63.463 147.472 63.791 146.666 63.791V63.2572C147.217 63.2572 147.491 63.0029 147.491 62.4691V60.3493H148.155V62.2391H149.175V62.8687Z" fill="#046C56"/>
<path d="M152.101 61.0331C151.836 60.8812 151.544 60.8085 151.241 60.8085C150.939 60.8085 150.63 60.8878 150.328 61.0386C150.702 61.1596 151.04 61.3853 151.335 61.7044C151.473 61.645 151.614 61.536 151.768 61.4007C151.907 61.2675 152.019 61.1475 152.101 61.0331ZM153.425 62.8689H152.162C151.996 62.8689 151.817 62.826 151.633 62.7346C151.48 62.6631 151.353 62.5772 151.254 62.4694C150.82 62.7346 150.385 62.8689 149.941 62.8689H148.945V62.2394H149.929C150.124 62.2394 150.28 62.225 150.393 62.1953C150.535 62.1722 150.679 62.1183 150.82 62.0258C150.731 61.8982 150.56 61.7606 150.316 61.6153C150.072 61.4689 149.835 61.3643 149.614 61.3181V60.7304C150.131 60.4189 150.672 60.2747 151.223 60.2747C151.876 60.2747 152.44 60.4695 152.916 60.8515C152.861 61.0022 152.718 61.2081 152.495 61.4689C152.252 61.743 152.025 61.9477 151.811 62.0886C151.895 62.1656 151.972 62.2085 152.049 62.225C152.079 62.2327 152.168 62.2394 152.311 62.2394H153.425V62.8689Z" fill="#046C56"/>
</g>
<path d="M153.312 62.8688H154.565V62.2392H153.312V62.8688Z" fill="#046C56"/>
<mask id="mask11_9_2637" style="mask-type:luminance" maskUnits="userSpaceOnUse" x="-229" y="-760" width="1349" height="891">
<path d="M-228.206 130.078H1119.59V-759.093H-228.206V130.078Z" fill="white"/>
</mask>
<g mask="url(#mask11_9_2637)">
<path d="M156.108 61.8633C156.108 62.5358 155.777 62.8682 155.11 62.8682H154.41V62.2387H154.975C155.194 62.2387 155.33 62.1792 155.395 62.056C155.426 61.991 155.443 61.8578 155.443 61.6564V59.2934H156.108V61.8633Z" fill="#046C56"/>
</g>
<path d="M156.72 62.8688H157.379V59.2884H156.72V62.8688Z" fill="#046C56"/>
<mask id="mask12_9_2637" style="mask-type:luminance" maskUnits="userSpaceOnUse" x="-229" y="-760" width="1349" height="891">
<path d="M-228.206 130.078H1119.59V-759.093H-228.206V130.078Z" fill="white"/>
</mask>
<g mask="url(#mask12_9_2637)">
<path d="M161.403 59.8399H160.751V59.2257H161.403V59.8399ZM163.867 62.8688H162.668C162.502 63.1539 162.281 63.3784 162.002 63.5358C161.713 63.7108 161.403 63.79 161.065 63.79C160.549 63.79 160.11 63.6084 159.748 63.2507C159.372 62.8809 159.184 62.4329 159.184 61.8936V60.3484H159.854V61.8199C159.854 62.1842 159.956 62.4935 160.15 62.7532C160.382 63.0504 160.684 63.1968 161.065 63.1968C161.439 63.1968 161.742 63.0504 161.973 62.7532C162.169 62.4935 162.264 62.1842 162.264 61.8199V60.3484H162.935V61.8936C162.935 62.0081 162.924 62.1226 162.899 62.2392H163.867V62.8688Z" fill="#046C56"/>
<path d="M165.363 64.0861H164.709V63.462H165.363V64.0861ZM165.381 61.8628C165.381 62.5364 165.049 62.8688 164.39 62.8688H163.689V62.2392H164.248C164.466 62.2392 164.603 62.1787 164.67 62.0565C164.698 61.9905 164.717 61.8573 164.717 61.657V60.3483H165.381V61.8628ZM164.243 64.0861H163.589V63.462H164.243V64.0861Z" fill="#046C56"/>
<path d="M169.791 62.8687H165.939V62.2391H168.086C168.086 61.5116 167.786 61.0868 167.184 60.9657C167.001 60.9294 166.8 60.9184 166.585 60.9184V60.3493C166.912 60.3493 167.12 60.3526 167.202 60.3603C167.286 60.3658 167.406 60.3901 167.559 60.4396C168.355 60.6883 168.752 61.2871 168.759 62.2391H169.791V62.8687Z" fill="#046C56"/>
</g>
<path d="M169.572 62.8688H170.824V62.2392H169.572V62.8688Z" fill="#046C56"/>
<mask id="mask13_9_2637" style="mask-type:luminance" maskUnits="userSpaceOnUse" x="-229" y="-760" width="1349" height="891">
<path d="M-228.206 130.078H1119.59V-759.093H-228.206V130.078Z" fill="white"/>
</mask>
<g mask="url(#mask13_9_2637)">
<path d="M173.834 61.0331C173.566 60.8812 173.276 60.8085 172.972 60.8085C172.669 60.8085 172.361 60.8878 172.058 61.0386C172.433 61.1596 172.772 61.3853 173.068 61.7044C173.203 61.645 173.346 61.536 173.5 61.4007C173.638 61.2675 173.75 61.1475 173.834 61.0331ZM175.158 62.8689H173.893C173.726 62.8689 173.549 62.826 173.364 62.7346C173.211 62.6631 173.085 62.5772 172.985 62.4694C172.551 62.7346 172.119 62.8689 171.674 62.8689H170.675V62.2394H171.66C171.856 62.2394 172.01 62.225 172.124 62.1953C172.266 62.1722 172.409 62.1183 172.551 62.0258C172.462 61.8982 172.291 61.7606 172.046 61.6153C171.804 61.4689 171.566 61.3643 171.347 61.3181V60.7304C171.862 60.4189 172.403 60.2747 172.955 60.2747C173.607 60.2747 174.172 60.4695 174.647 60.8515C174.594 61.0022 174.451 61.2081 174.224 61.4689C173.981 61.743 173.755 61.9477 173.543 62.0886C173.626 62.1656 173.703 62.2085 173.781 62.225C173.809 62.2327 173.899 62.2394 174.042 62.2394H175.158V62.8689Z" fill="#046C56"/>
</g>
<path d="M175.045 62.8688H176.298V62.2392H175.045V62.8688Z" fill="#046C56"/>
<mask id="mask14_9_2637" style="mask-type:luminance" maskUnits="userSpaceOnUse" x="-229" y="-760" width="1349" height="891">
<path d="M-228.206 130.078H1119.59V-759.093H-228.206V130.078Z" fill="white"/>
</mask>
<g mask="url(#mask14_9_2637)">
<path d="M177.899 59.8332H177.246V59.2213H177.899V59.8332ZM178.897 62.8688H176.155V62.2392H176.771C176.967 62.2392 177.098 62.1787 177.169 62.051C177.217 61.9652 177.241 61.8199 177.241 61.6273V60.3483H177.899V61.5953C177.899 61.9233 177.851 62.1291 177.758 62.2392H178.897V62.8688ZM176.771 59.8332H176.118V59.2213H176.771V59.8332Z" fill="#046C56"/>
<path d="M180.399 61.8633C180.399 62.5358 180.065 62.8682 179.402 62.8682H178.701V62.2386H179.264C179.485 62.2386 179.622 62.1792 179.686 62.0559C179.718 61.991 179.734 61.8578 179.734 61.6564V59.2934H180.399V61.8633Z" fill="#046C56"/>
</g>
<path d="M181.011 62.8688H181.67V59.2884H181.011V62.8688Z" fill="#046C56"/>
<mask id="mask15_9_2637" style="mask-type:luminance" maskUnits="userSpaceOnUse" x="-229" y="-760" width="1349" height="891">
<path d="M-228.206 130.078H1119.59V-759.093H-228.206V130.078Z" fill="white"/>
</mask>
<g mask="url(#mask15_9_2637)">
<path d="M186.115 59.36H185.461V58.7414H186.115V59.36ZM184.991 59.36H184.34V58.7414H184.991V59.36ZM185.48 61.099V60.2922H184.88C184.417 60.2922 184.133 60.6378 184.133 61.154C184.133 61.5843 184.388 61.9475 184.786 61.9475C185.219 61.9475 185.48 61.5722 185.48 61.099ZM187.255 62.8688H186.536C186.02 62.8688 185.598 62.5419 185.462 62.051C185.254 62.3306 184.999 62.4637 184.703 62.4637C183.943 62.4637 183.474 61.9365 183.474 61.1595C183.474 60.3285 183.943 59.8145 184.703 59.8145H186.169V61.5722C186.169 62.0015 186.388 62.2392 186.834 62.2392H187.255V62.8688Z" fill="#046C56"/>
</g>
<path d="M187.148 62.8688H188.402V62.2392H187.148V62.8688Z" fill="#046C56"/>
<mask id="mask16_9_2637" style="mask-type:luminance" maskUnits="userSpaceOnUse" x="-229" y="-760" width="1349" height="891">
<path d="M-228.206 130.078H1119.59V-759.093H-228.206V130.078Z" fill="white"/>
</mask>
<g mask="url(#mask16_9_2637)">
<path d="M192.224 62.4808V62.8682H188.252V62.2387H191.511C191.511 61.8942 191.405 61.6025 191.191 61.3549C190.94 61.0764 190.597 60.9355 190.163 60.9355H188.792L189.962 59.2934H190.751L189.95 60.3489H190.242C190.68 60.3489 191.06 60.4501 191.38 60.6571C191.945 61.0093 192.224 61.6091 192.224 62.4808Z" fill="#046C56"/>
<path d="M195.173 62.8687H194.111C194.011 63.463 193.47 63.791 192.664 63.791V63.2572C193.214 63.2572 193.488 63.0029 193.488 62.4691V60.3493H194.152V62.2391H195.173V62.8687Z" fill="#046C56"/>
<path d="M198.206 59.2268H198.856V59.841H198.206V59.2268ZM197.649 58.3474H198.302V58.9649H197.649V58.3474ZM197.087 59.2268H197.733V59.841H197.087V59.2268ZM194.967 62.2392H195.452C195.791 62.2392 195.956 62.0202 195.956 61.5844V60.3483H196.629V61.5601C196.629 61.887 196.594 62.0994 196.522 62.2029V62.2392H197.139C197.477 62.2392 197.644 62.0345 197.644 61.6196V60.3483H198.313V61.5601C198.313 61.9233 198.265 62.1479 198.176 62.2392H198.825C199.162 62.2392 199.329 62.0345 199.329 61.6273V60.3483H200V61.5491C200 62.3471 199.525 62.8688 198.848 62.8688H194.967V62.2392Z" fill="#046C56"/>
<path d="M0.16281 62.6514V61.8579C0.526018 62.0626 0.823188 62.166 1.10165 62.166C1.44945 62.166 1.7125 61.9844 1.7125 61.6201V61.6025C1.7125 61.2987 1.60464 61.0753 1.07743 60.4865C0.368628 59.6984 0.113281 59.3605 0.113281 58.7607V58.7409C0.113281 57.9539 0.691112 57.4333 1.43184 57.4333C1.81816 57.4333 2.0658 57.5071 2.32005 57.627V58.4206C2.00857 58.2445 1.78514 58.1597 1.52209 58.1597C1.193 58.1597 0.928848 58.3656 0.928848 58.7068V58.7167C0.928848 59.0204 1.03781 59.1778 1.56391 59.759C2.32995 60.6031 2.52586 60.9597 2.52586 61.5651V61.5783C2.52586 62.3664 1.92712 62.8936 1.17539 62.8936C0.797873 62.8936 0.467684 62.7956 0.16281 62.6514Z" fill="#046C56"/>
<path d="M5.35994 61.7119V60.9789C5.23557 60.9239 5.07157 60.8688 4.93069 60.8688C4.63462 60.8688 4.46292 61.0989 4.46292 61.5413V61.6327C4.46292 62.0883 4.62802 62.2996 4.88337 62.2996C5.15412 62.2996 5.35994 62.0509 5.35994 61.7119ZM3.70459 61.6932V61.5908C3.70459 60.7169 4.10852 60.2866 4.73368 60.2866C4.96591 60.2866 5.17173 60.3493 5.35994 60.4396V60.1171C5.35994 59.6526 5.1211 59.4017 4.68415 59.4017C4.4134 59.4017 4.17456 59.4875 3.92692 59.591V58.8943C4.20758 58.7776 4.46292 58.7171 4.81623 58.7171C5.65601 58.7171 6.13368 59.1849 6.13368 60.0632V62.839H5.35003V62.3602C5.17943 62.7168 4.9395 62.9094 4.5939 62.9094C4.0755 62.9094 3.70459 62.4262 3.70459 61.6932Z" fill="#046C56"/>
<path d="M7.54053 61.7837V58.7668H8.32418V61.6274C8.32418 62.0379 8.48927 62.2635 8.76003 62.2635C9.04069 62.2635 9.2465 62.0148 9.2465 61.6087V58.7668H10.028V62.8392H9.2465V62.323C9.08141 62.6444 8.84257 62.9096 8.43094 62.9096C7.86301 62.9096 7.54053 62.4694 7.54053 61.7837Z" fill="#046C56"/>
<path d="M13.2236 60.9298V60.6745C13.2236 59.8457 12.9925 59.3834 12.6876 59.3834C12.3762 59.3834 12.1857 59.8512 12.1857 60.6932V60.9243C12.1857 61.7663 12.3762 62.2198 12.6876 62.2198C12.9925 62.2198 13.2236 61.7729 13.2236 60.9298ZM11.4043 60.9551V60.6569C11.4043 59.2459 11.8479 58.6999 12.3993 58.6999C12.8285 58.6999 13.0596 59.0389 13.2071 59.3471V57.4452H13.9985V62.8394H13.2071V62.2506C13.0596 62.5587 12.8285 62.9099 12.3993 62.9099C11.8479 62.9099 11.4043 62.3716 11.4043 60.9551Z" fill="#046C56"/>
</g>
<path d="M15.4727 58.2373H16.2794V57.4449H15.4727V58.2373ZM15.488 62.8391H16.2717V58.7667H15.488V62.8391Z" fill="#046C56"/>
<path d="M21.6392 60.9661L21.2199 58.821L20.7994 60.9661H21.6392ZM20.7994 57.476H21.6645L22.8103 62.8394H21.9936L21.7636 61.6496H20.6762L20.4461 62.8394H19.6548L20.7994 57.476Z" fill="#046C56"/>
<mask id="mask17_9_2637" style="mask-type:luminance" maskUnits="userSpaceOnUse" x="-229" y="-760" width="1349" height="891">
<path d="M-228.206 130.078H1119.59V-759.093H-228.206V130.078Z" fill="white"/>
</mask>
<g mask="url(#mask17_9_2637)">
<path d="M24.0366 58.7667H24.8192V59.3005C24.9589 58.9483 25.2055 58.6996 25.6171 58.7172V59.5845H25.6028C25.1141 59.5845 24.8192 59.8806 24.8192 60.4991V62.8391H24.0366V58.7667Z" fill="#046C56"/>
<path d="M28.2536 61.7119V60.9789C28.1292 60.9239 27.9653 60.8688 27.8244 60.8688C27.5283 60.8688 27.3577 61.0989 27.3577 61.5413V61.6327C27.3577 62.0883 27.5195 62.2996 27.7748 62.2996C28.0478 62.2996 28.2536 62.0509 28.2536 61.7119ZM26.5972 61.6932V61.5908C26.5972 60.7169 27.0022 60.2866 27.6285 60.2866C27.8574 60.2866 28.0654 60.3493 28.2536 60.4396V60.1171C28.2536 59.6526 28.0148 59.4017 27.5778 59.4017C27.3071 59.4017 27.0671 59.4875 26.8195 59.591V58.8943C27.1002 58.7776 27.3577 58.7171 27.7099 58.7171C28.5497 58.7171 29.0274 59.1849 29.0274 60.0632V62.839H28.2448V62.3602C28.072 62.7168 27.8332 62.9094 27.4865 62.9094C26.9692 62.9094 26.5972 62.4262 26.5972 61.6932Z" fill="#046C56"/>
<path d="M32.2716 60.9244V60.6933C32.2716 59.8458 32.0735 59.3835 31.7697 59.3835C31.4648 59.3835 31.2337 59.8458 31.2337 60.6746V60.9299C31.2337 61.7664 31.4648 62.2198 31.7697 62.2198C32.0735 62.2198 32.2716 61.7664 32.2716 60.9244ZM31.2425 62.2628V62.8395H30.46V57.4453H31.2425V59.3604C31.3911 59.0511 31.6299 58.7 32.0581 58.7C32.6007 58.7 33.053 59.2327 33.053 60.657V60.9552C33.053 62.3596 32.6007 62.9099 32.0581 62.9099C31.6299 62.9099 31.3999 62.572 31.2425 62.2628Z" fill="#046C56"/>
</g>
<path d="M34.4365 58.2373H35.2444V57.4449H34.4365V58.2373ZM34.4542 62.8391H35.2378V58.7667H34.4542V62.8391Z" fill="#046C56"/>
<mask id="mask18_9_2637" style="mask-type:luminance" maskUnits="userSpaceOnUse" x="-229" y="-760" width="1349" height="891">
<path d="M-228.206 130.078H1119.59V-759.093H-228.206V130.078Z" fill="white"/>
</mask>
<g mask="url(#mask18_9_2637)">
<path d="M38.2016 61.7119V60.9789C38.0772 60.9239 37.9121 60.8688 37.7735 60.8688C37.4774 60.8688 37.3035 61.0989 37.3035 61.5413V61.6327C37.3035 62.0883 37.4686 62.2996 37.7228 62.2996C37.9947 62.2996 38.2016 62.0509 38.2016 61.7119ZM36.5474 61.6932V61.5908C36.5474 60.7169 36.9491 60.2866 37.5754 60.2866C37.8065 60.2866 38.0112 60.3493 38.2016 60.4396V60.1171C38.2016 59.6526 37.9617 59.4017 37.5247 59.4017C37.254 59.4017 37.0162 59.4875 36.7675 59.591V58.8943C37.0482 58.7776 37.3035 58.7171 37.6568 58.7171C38.4988 58.7171 38.9754 59.1849 38.9754 60.0632V62.839H38.1939V62.3602C38.02 62.7168 37.7801 62.9094 37.4334 62.9094C36.9161 62.9094 36.5474 62.4262 36.5474 61.6932Z" fill="#046C56"/>
<path d="M40.4077 58.7669H41.1903V59.2875C41.3554 58.965 41.5931 58.6997 42.0069 58.6997C42.5749 58.6997 42.8962 59.1422 42.8962 59.8268V62.8392H42.1137V59.9842C42.1137 59.5659 41.9486 59.3469 41.6756 59.3469C41.3972 59.3469 41.1903 59.5912 41.1903 59.9963V62.8392H40.4077V58.7669Z" fill="#046C56"/>
</g>
<path d="M46.5103 57.4865H47.3423L48.1579 59.7593L48.9735 57.4865H49.8044V62.8388H49.0208V59.1957L48.1656 61.5489H48.1403L47.2851 59.1957V62.8388H46.5103V57.4865Z" fill="#046C56"/>
<path d="M51.3027 58.2373H52.1095V57.4449H51.3027V58.2373ZM51.3193 62.8391H52.1018V58.7667H51.3193V62.8391Z" fill="#046C56"/>
<mask id="mask19_9_2637" style="mask-type:luminance" maskUnits="userSpaceOnUse" x="-229" y="-760" width="1349" height="891">
<path d="M-228.206 130.078H1119.59V-759.093H-228.206V130.078Z" fill="white"/>
</mask>
<g mask="url(#mask19_9_2637)">
<path d="M53.5835 58.7669H54.366V59.2875C54.5311 58.965 54.77 58.6997 55.1805 58.6997C55.7495 58.6997 56.072 59.1422 56.072 59.8268V62.8392H55.2895V59.9842C55.2895 59.5659 55.1244 59.3469 54.8525 59.3469C54.573 59.3469 54.366 59.5912 54.366 59.9963V62.8392H53.5835V58.7669Z" fill="#046C56"/>
</g>
<path d="M57.52 58.2373H58.3268V57.4449H57.52V58.2373ZM57.5377 62.8391H58.3191V58.7667H57.5377V62.8391Z" fill="#046C56"/>
<mask id="mask20_9_2637" style="mask-type:luminance" maskUnits="userSpaceOnUse" x="-229" y="-760" width="1349" height="891">
<path d="M-228.206 130.078H1119.59V-759.093H-228.206V130.078Z" fill="white"/>
</mask>
<g mask="url(#mask20_9_2637)">
<path d="M59.8013 58.7669H60.5838V59.2875C60.7467 58.965 60.9877 58.6997 61.3983 58.6997C61.9684 58.6997 62.2887 59.1422 62.2887 59.8268V62.8392H61.5072V59.9842C61.5072 59.5659 61.3422 59.3469 61.0692 59.3469C60.7885 59.3469 60.5838 59.5912 60.5838 59.9963V62.8392H59.8013V58.7669Z" fill="#046C56"/>
<path d="M65.459 60.6703V60.6372C65.459 59.8206 65.2124 59.3836 64.9241 59.3836C64.6269 59.3836 64.4222 59.8151 64.4222 60.6372V60.6637C64.4222 61.4924 64.6269 61.9173 64.9241 61.9173C65.2124 61.9173 65.459 61.488 65.459 60.6703ZM63.8202 63.7113V63.0333C64.0997 63.1291 64.4629 63.2072 64.6841 63.2072C65.1629 63.2072 65.4414 63.008 65.4414 62.5105V61.9481C65.295 62.2629 65.0562 62.6019 64.6269 62.6019C64.0843 62.6019 63.6396 62.0626 63.6396 60.6747V60.6273C63.6396 59.2394 64.0843 58.7001 64.6269 58.7001C65.0562 58.7001 65.295 59.0314 65.4414 59.3473V58.7673H66.2338V62.5589C66.2338 63.4813 65.6648 63.8511 64.7689 63.8511C64.3958 63.8511 64.125 63.7972 63.8202 63.7113Z" fill="#046C56"/>
<path d="M69.7573 60.2514V60.0819C69.7573 58.2328 70.4991 57.4503 71.3973 57.4503C71.6768 57.4503 71.8243 57.4866 72.0301 57.5779V58.3605C71.8243 58.2449 71.6592 58.1844 71.4699 58.1844C70.9691 58.1844 70.5817 58.6808 70.5817 60.0753V60.2558C70.5817 61.6987 70.9691 62.1478 71.4798 62.1478C71.6504 62.1478 71.8408 62.0927 72.0466 61.9783V62.7168C71.8408 62.8324 71.6273 62.8808 71.3477 62.8808C70.4496 62.8808 69.7573 62.0883 69.7573 60.2514Z" fill="#046C56"/>
<path d="M75.0947 60.9121V60.7008C75.0947 59.8203 74.8713 59.3547 74.5587 59.3547C74.2373 59.3547 74.0139 59.8203 74.0139 60.7008V60.9121C74.0139 61.7959 74.2373 62.2626 74.5587 62.2626C74.8713 62.2626 75.0947 61.7959 75.0947 60.9121ZM73.2324 60.9055V60.7173C73.2324 59.4141 73.8092 58.7064 74.5587 58.7064C75.3082 58.7064 75.8761 59.4141 75.8761 60.7173V60.9055C75.8761 62.2086 75.2994 62.9097 74.5587 62.9097C73.8092 62.9097 73.2324 62.2086 73.2324 60.9055Z" fill="#046C56"/>
<path d="M77.2349 58.7669H78.0185V59.2875C78.1968 58.9419 78.4379 58.6997 78.8253 58.6997C79.227 58.6997 79.4504 58.9364 79.5979 59.2335C79.763 58.9782 80.0184 58.6997 80.4377 58.6997C80.9484 58.6997 81.3765 59.0882 81.3765 59.84V62.8392H80.5962V59.9842C80.5962 59.5659 80.4377 59.3469 80.168 59.3469C79.894 59.3469 79.6981 59.5912 79.6981 59.9963V62.8392H78.9144V59.9842C78.9144 59.5659 78.7581 59.3469 78.4863 59.3469C78.2155 59.3469 78.0185 59.5912 78.0185 59.9963V62.8392H77.2349V58.7669Z" fill="#046C56"/>
<path d="M84.6471 60.9244V60.6933C84.6471 59.8458 84.4479 59.3835 84.1441 59.3835C83.8392 59.3835 83.6081 59.8458 83.6081 60.6746V60.9299C83.6081 61.7664 83.8392 62.2199 84.1441 62.2199C84.4479 62.2199 84.6471 61.7664 84.6471 60.9244ZM82.8354 58.7672H83.6169V59.3604C83.7655 59.0511 84.0043 58.7 84.4325 58.7C84.9762 58.7 85.4285 59.2327 85.4285 60.657V60.9552C85.4285 62.3596 84.9762 62.9099 84.4325 62.9099C84.0043 62.9099 83.7732 62.5721 83.6169 62.2628V63.8323H82.8354V58.7672Z" fill="#046C56"/>
<path d="M88.2861 61.7119V60.9789C88.1617 60.9239 87.9977 60.8688 87.859 60.8688C87.5619 60.8688 87.3891 61.0989 87.3891 61.5413V61.6327C87.3891 62.0883 87.5542 62.2996 87.8095 62.2996C88.0803 62.2996 88.2861 62.0509 88.2861 61.7119ZM86.6318 61.6932V61.5908C86.6318 60.7169 87.0347 60.2866 87.6609 60.2866C87.8921 60.2866 88.0979 60.3493 88.2861 60.4396V60.1171C88.2861 59.6526 88.0472 59.4017 87.6125 59.4017C87.3395 59.4017 87.0996 59.4875 86.8542 59.591V58.8943C87.1337 58.7776 87.3891 58.7171 87.7424 58.7171C88.5822 58.7171 89.0598 59.1849 89.0598 60.0632V62.839H88.2784V62.3602C88.1056 62.7168 87.8656 62.9094 87.5189 62.9094C87.0016 62.9094 86.6318 62.4262 86.6318 61.6932Z" fill="#046C56"/>
<path d="M90.4927 58.7669H91.2752V59.2875C91.4403 58.965 91.6781 58.6997 92.0919 58.6997C92.6598 58.6997 92.9801 59.1422 92.9801 59.8268V62.8392H92.1987V59.9842C92.1987 59.5659 92.0336 59.3469 91.7606 59.3469C91.4821 59.3469 91.2752 59.5912 91.2752 59.9963V62.8392H90.4927V58.7669Z" fill="#046C56"/>
</g>
<path d="M95.0966 62.7296L94.1489 58.7673H94.9238L95.4752 61.4881L96.0585 58.7673H96.8268L95.583 63.8324H94.8247L95.0966 62.7296Z" fill="#046C56"/>
</g>
</g>
<defs>
<clipPath id="clip0_9_2637">
<rect width="200" height="63.1722" fill="white" transform="translate(0 0.913879)"/>
</clipPath>
</defs>
</svg>
