<svg width="24" height="25" viewBox="0 0 24 25" fill="none" xmlns="http://www.w3.org/2000/svg">
<g id="eye-password">
<path id="Vector" d="M2 5.35612L3.28 4.08612L20 20.8061L18.73 22.0861L15.65 19.0061C14.5 19.3861 13.28 19.5861 12 19.5861C7 19.5861 2.73 16.4761 1 12.0861C1.69 10.3261 2.79 8.77612 4.19 7.54612L2 5.35612ZM12 9.08612C12.7956 9.08612 13.5587 9.40219 14.1213 9.9648C14.6839 10.5274 15 11.2905 15 12.0861C15.0005 12.4267 14.943 12.7649 14.83 13.0861L11 9.25612C11.3213 9.1431 11.6594 9.08562 12 9.08612ZM12 4.58612C17 4.58612 21.27 7.69612 23 12.0861C22.1834 14.1591 20.7966 15.9584 19 17.2761L17.58 15.8461C18.9629 14.8896 20.0783 13.5952 20.82 12.0861C20.0117 10.436 18.7565 9.04575 17.1974 8.07347C15.6382 7.1012 13.8375 6.58588 12 6.58612C10.91 6.58612 9.84 6.76612 8.84 7.08612L7.3 5.55612C8.74 4.93612 10.33 4.58612 12 4.58612ZM3.18 12.0861C3.98835 13.7363 5.24345 15.1265 6.80264 16.0988C8.36182 17.071 10.1625 17.5864 12 17.5861C12.69 17.5861 13.37 17.5161 14 17.3761L11.72 15.0861C11.0242 15.0115 10.3748 14.701 9.87997 14.2061C9.38512 13.7113 9.07458 13.062 9 12.3661L5.6 8.95612C4.61 9.80612 3.78 10.8661 3.18 12.0861Z" fill="#121212"/>
</g>
</svg>
