<svg width="11" height="12" viewBox="0 0 11 12" fill="none" xmlns="http://www.w3.org/2000/svg">
<path d="M10.7564 0.671731C10.6792 0.594385 10.5875 0.533021 10.4865 0.491152C10.3856 0.449284 10.2774 0.427733 10.1681 0.427733C10.0589 0.427733 9.95067 0.449284 9.84974 0.491152C9.74881 0.533021 9.65712 0.594385 9.57993 0.671731L5.5 4.74332L1.42007 0.663387C1.34282 0.586142 1.25112 0.524868 1.15019 0.483064C1.04927 0.441259 0.941097 0.419743 0.831856 0.419743C0.722615 0.419743 0.614444 0.441259 0.513518 0.483064C0.412593 0.524868 0.32089 0.586142 0.243645 0.663387C0.1664 0.740632 0.105126 0.832336 0.0633211 0.933261C0.0215164 1.03419 -8.13908e-10 1.14236 0 1.2516C8.13909e-10 1.36084 0.0215164 1.46901 0.0633211 1.56994C0.105126 1.67086 0.1664 1.76257 0.243645 1.83981L4.32358 5.91974L0.243645 9.99967C0.1664 10.0769 0.105126 10.1686 0.0633211 10.2695C0.0215164 10.3705 0 10.4786 0 10.5879C0 10.6971 0.0215164 10.8053 0.0633211 10.9062C0.105126 11.0071 0.1664 11.0989 0.243645 11.1761C0.32089 11.2533 0.412593 11.3146 0.513518 11.3564C0.614444 11.3982 0.722615 11.4197 0.831856 11.4197C0.941097 11.4197 1.04927 11.3982 1.15019 11.3564C1.25112 11.3146 1.34282 11.2533 1.42007 11.1761L5.5 7.09616L9.57993 11.1761C9.65718 11.2533 9.74888 11.3146 9.84981 11.3564C9.95073 11.3982 10.0589 11.4197 10.1681 11.4197C10.2774 11.4197 10.3856 11.3982 10.4865 11.3564C10.5874 11.3146 10.6791 11.2533 10.7564 11.1761C10.8336 11.0989 10.8949 11.0071 10.9367 10.9062C10.9785 10.8053 11 10.6971 11 10.5879C11 10.4786 10.9785 10.3705 10.9367 10.2695C10.8949 10.1686 10.8336 10.0769 10.7564 9.99967L6.67642 5.91974L10.7564 1.83981C11.0734 1.52276 11.0734 0.988781 10.7564 0.671731Z" fill="#FF0000"/>
</svg>
