<svg width="20" height="20" viewBox="0 0 20 20" fill="none" xmlns="http://www.w3.org/2000/svg">
<mask id="path-1-outside-1_695_4008" maskUnits="userSpaceOnUse" x="0.666748" y="1.5" width="18" height="16" fill="black">
<rect fill="white" x="0.666748" y="1.5" width="18" height="16"/>
<path d="M7.88508 10.8333H15.1284L12.8301 7.78833L10.7851 10.3525L9.46175 8.7825L7.88508 10.8333ZM3.01341 16.475C2.64008 16.475 2.3223 16.3436 2.06008 16.0808C1.79786 15.8186 1.66675 15.5011 1.66675 15.1283V5.8975H2.50008V15.1283C2.50008 15.2778 2.54814 15.4006 2.64425 15.4967C2.74036 15.5928 2.86341 15.6408 3.01341 15.6408H15.8334V16.4742L3.01341 16.475ZM5.51341 13.975C5.14008 13.975 4.8223 13.8436 4.56008 13.5808C4.29786 13.3186 4.16675 13.0011 4.16675 12.6283V3.84667C4.16675 3.47333 4.29786 3.15556 4.56008 2.89333C4.8223 2.63111 5.14008 2.5 5.51341 2.5H9.64758L11.3142 4.16667H16.9876C17.3598 4.16667 17.6773 4.29778 17.9401 4.56C18.2023 4.82222 18.3334 5.14 18.3334 5.51333V12.6283C18.3334 13.0011 18.2023 13.3186 17.9401 13.5808C17.6779 13.8431 17.3601 13.9742 16.9867 13.9742L5.51341 13.975ZM5.51341 13.1417H16.9876C17.137 13.1417 17.2598 13.0933 17.3559 12.9967C17.452 12.9006 17.5001 12.7778 17.5001 12.6283V5.51333C17.5001 5.36333 17.452 5.24028 17.3559 5.14417C17.2598 5.04806 17.137 5 16.9876 5H10.9792L9.31258 3.33333H5.51258C5.36314 3.33333 5.24036 3.38139 5.14425 3.4775C5.04814 3.57361 5.00008 3.69667 5.00008 3.84667V12.6283C5.00008 12.7778 5.04814 12.9006 5.14425 12.9967C5.24036 13.0928 5.36341 13.1408 5.51341 13.1408"/>
</mask>
<path d="M7.88508 10.8333H15.1284L12.8301 7.78833L10.7851 10.3525L9.46175 8.7825L7.88508 10.8333ZM3.01341 16.475C2.64008 16.475 2.3223 16.3436 2.06008 16.0808C1.79786 15.8186 1.66675 15.5011 1.66675 15.1283V5.8975H2.50008V15.1283C2.50008 15.2778 2.54814 15.4006 2.64425 15.4967C2.74036 15.5928 2.86341 15.6408 3.01341 15.6408H15.8334V16.4742L3.01341 16.475ZM5.51341 13.975C5.14008 13.975 4.8223 13.8436 4.56008 13.5808C4.29786 13.3186 4.16675 13.0011 4.16675 12.6283V3.84667C4.16675 3.47333 4.29786 3.15556 4.56008 2.89333C4.8223 2.63111 5.14008 2.5 5.51341 2.5H9.64758L11.3142 4.16667H16.9876C17.3598 4.16667 17.6773 4.29778 17.9401 4.56C18.2023 4.82222 18.3334 5.14 18.3334 5.51333V12.6283C18.3334 13.0011 18.2023 13.3186 17.9401 13.5808C17.6779 13.8431 17.3601 13.9742 16.9867 13.9742L5.51341 13.975ZM5.51341 13.1417H16.9876C17.137 13.1417 17.2598 13.0933 17.3559 12.9967C17.452 12.9006 17.5001 12.7778 17.5001 12.6283V5.51333C17.5001 5.36333 17.452 5.24028 17.3559 5.14417C17.2598 5.04806 17.137 5 16.9876 5H10.9792L9.31258 3.33333H5.51258C5.36314 3.33333 5.24036 3.38139 5.14425 3.4775C5.04814 3.57361 5.00008 3.69667 5.00008 3.84667V12.6283C5.00008 12.7778 5.04814 12.9006 5.14425 12.9967C5.24036 13.0928 5.36341 13.1408 5.51341 13.1408" fill="#046C56"/>
<path d="M5.10008 13.1408V3.33333H4.90008V13.1408H5.10008ZM7.88508 10.8333L7.72652 10.7114L7.47905 11.0333H7.88508V10.8333ZM15.1284 10.8333V11.0333H15.5299L15.288 10.7128L15.1284 10.8333ZM12.8301 7.78833L12.9897 7.66784L12.8344 7.46212L12.6737 7.66363L12.8301 7.78833ZM10.7851 10.3525L10.6322 10.4814L10.7894 10.6679L10.9414 10.4772L10.7851 10.3525ZM9.46175 8.7825L9.61467 8.6536L9.45458 8.46368L9.30319 8.6606L9.46175 8.7825ZM3.01341 16.475V16.675H3.01343L3.01341 16.475ZM2.06008 16.0808L2.20165 15.9396L2.2015 15.9394L2.06008 16.0808ZM1.66675 5.8975V5.6975H1.46675V5.8975H1.66675ZM2.50008 5.8975H2.70008V5.6975H2.50008V5.8975ZM3.01341 15.6408V15.4408V15.6408ZM15.8334 15.6408H16.0334V15.4408H15.8334V15.6408ZM15.8334 16.4742L15.8334 16.6742L16.0334 16.6742V16.4742H15.8334ZM5.51341 13.975V14.175H5.51343L5.51341 13.975ZM4.56008 13.5808L4.70165 13.4396L4.7015 13.4394L4.56008 13.5808ZM5.51341 2.5V2.7V2.5ZM9.64758 2.5L9.789 2.35858L9.73042 2.3H9.64758V2.5ZM11.3142 4.16667L11.1728 4.30809L11.2314 4.36667H11.3142V4.16667ZM17.9401 4.56L18.0815 4.41858L18.0814 4.41843L17.9401 4.56ZM16.9867 13.9742V13.7742H16.9867L16.9867 13.9742ZM17.3559 12.9967L17.2145 12.8552L17.2141 12.8557L17.3559 12.9967ZM10.9792 5L10.8378 5.14142L10.8964 5.2H10.9792V5ZM9.31258 3.33333L9.454 3.19191L9.39542 3.13333H9.31258V3.33333ZM5.00008 3.84667H4.80008H5.00008ZM7.88508 11.0333H15.1284V10.6333H7.88508V11.0333ZM15.288 10.7128L12.9897 7.66784L12.6704 7.90882L14.9688 10.9538L15.288 10.7128ZM12.6737 7.66363L10.6287 10.2278L10.9414 10.4772L12.9864 7.91304L12.6737 7.66363ZM10.938 10.2236L9.61467 8.6536L9.30882 8.9114L10.6322 10.4814L10.938 10.2236ZM9.30319 8.6606L7.72652 10.7114L8.04364 10.9552L9.62031 8.9044L9.30319 8.6606ZM3.01341 16.275C2.69286 16.275 2.42612 16.1645 2.20165 15.9396L1.91851 16.2221C2.21849 16.5227 2.5873 16.675 3.01341 16.675V16.275ZM2.2015 15.9394C1.97701 15.7149 1.86675 15.4484 1.86675 15.1283H1.46675C1.46675 15.5538 1.61871 15.9223 1.91866 16.2223L2.2015 15.9394ZM1.86675 15.1283V5.8975H1.46675V15.1283H1.86675ZM1.66675 6.0975H2.50008V5.6975H1.66675V6.0975ZM2.30008 5.8975V15.1283H2.70008V5.8975H2.30008ZM2.30008 15.1283C2.30008 15.325 2.3653 15.5006 2.50283 15.6381L2.78567 15.3552C2.73098 15.3006 2.70008 15.2305 2.70008 15.1283H2.30008ZM2.50283 15.6381C2.64051 15.7758 2.8164 15.8408 3.01341 15.8408V15.4408C2.91043 15.4408 2.84021 15.4098 2.78567 15.3552L2.50283 15.6381ZM3.01341 15.8408H15.8334V15.4408H3.01341V15.8408ZM15.6334 15.6408V16.4742H16.0334V15.6408H15.6334ZM15.8334 16.2742L3.0134 16.275L3.01343 16.675L15.8334 16.6742L15.8334 16.2742ZM5.51341 13.775C5.19286 13.775 4.92612 13.6645 4.70165 13.4396L4.41851 13.7221C4.71849 14.0227 5.0873 14.175 5.51341 14.175V13.775ZM4.7015 13.4394C4.47701 13.2149 4.36675 12.9484 4.36675 12.6283H3.96675C3.96675 13.0538 4.11871 13.4223 4.41866 13.7223L4.7015 13.4394ZM4.36675 12.6283V3.84667H3.96675V12.6283H4.36675ZM4.36675 3.84667C4.36675 3.52598 4.47707 3.25919 4.7015 3.03475L4.41866 2.75191C4.11865 3.05192 3.96675 3.42069 3.96675 3.84667H4.36675ZM4.7015 3.03475C4.92593 2.81032 5.19272 2.7 5.51341 2.7V2.3C5.08744 2.3 4.71867 2.4519 4.41866 2.75191L4.7015 3.03475ZM5.51341 2.7H9.64758V2.3H5.51341V2.7ZM9.50616 2.64142L11.1728 4.30809L11.4557 4.02525L9.789 2.35858L9.50616 2.64142ZM11.3142 4.36667H16.9876V3.96667H11.3142V4.36667ZM16.9876 4.36667C17.307 4.36667 17.5736 4.47688 17.7988 4.70157L18.0814 4.41843C17.781 4.11868 17.4126 3.96667 16.9876 3.96667V4.36667ZM17.7987 4.70142C18.0231 4.92585 18.1334 5.19264 18.1334 5.51333H18.5334C18.5334 5.08736 18.3815 4.71859 18.0815 4.41858L17.7987 4.70142ZM18.1334 5.51333V12.6283H18.5334V5.51333H18.1334ZM18.1334 12.6283C18.1334 12.9484 18.0232 13.2149 17.7987 13.4394L18.0815 13.7223C18.3815 13.4223 18.5334 13.0538 18.5334 12.6283H18.1334ZM17.7987 13.4394C17.5742 13.6638 17.3074 13.7742 16.9867 13.7742V14.1742C17.4127 14.1742 17.7815 14.0223 18.0815 13.7223L17.7987 13.4394ZM16.9867 13.7742L5.5134 13.775L5.51343 14.175L16.9868 14.1742L16.9867 13.7742ZM5.51341 13.3417H16.9876V12.9417H5.51341V13.3417ZM16.9876 13.3417C17.1846 13.3417 17.3603 13.2759 17.4977 13.1377L17.2141 12.8557C17.1593 12.9107 17.0894 12.9417 16.9876 12.9417V13.3417ZM17.4973 13.1381C17.6349 13.0006 17.7001 12.825 17.7001 12.6283H17.3001C17.3001 12.7305 17.2692 12.8006 17.2145 12.8552L17.4973 13.1381ZM17.7001 12.6283V5.51333H17.3001V12.6283H17.7001ZM17.7001 5.51333C17.7001 5.31632 17.635 5.14042 17.4973 5.00275L17.2145 5.28559C17.269 5.34013 17.3001 5.41035 17.3001 5.51333H17.7001ZM17.4973 5.00275C17.3598 4.86522 17.1843 4.8 16.9876 4.8V5.2C17.0898 5.2 17.1598 5.23089 17.2145 5.28559L17.4973 5.00275ZM16.9876 4.8H10.9792V5.2H16.9876V4.8ZM11.1207 4.85858L9.454 3.19191L9.17116 3.47475L10.8378 5.14142L11.1207 4.85858ZM9.31258 3.13333H5.51258V3.53333H9.31258V3.13333ZM5.51258 3.13333C5.31589 3.13333 5.14036 3.19855 5.00283 3.33608L5.28567 3.61892C5.34036 3.56423 5.41038 3.53333 5.51258 3.53333V3.13333ZM5.00283 3.33608C4.86515 3.47376 4.80008 3.64965 4.80008 3.84667H5.20008C5.20008 3.74368 5.23112 3.67347 5.28567 3.61892L5.00283 3.33608ZM4.80008 3.84667V12.6283H5.20008V3.84667H4.80008ZM4.80008 12.6283C4.80008 12.825 4.8653 13.0006 5.00283 13.1381L5.28567 12.8552C5.23098 12.8006 5.20008 12.7305 5.20008 12.6283H4.80008ZM5.00283 13.1381C5.1405 13.2758 5.3164 13.3408 5.51341 13.3408V12.9408C5.41043 12.9408 5.34021 12.9098 5.28567 12.8552L5.00283 13.1381Z" fill="#046C56" mask="url(#path-1-outside-1_695_4008)"/>
</svg>
