<svg width="20" height="20" viewBox="0 0 20 20" fill="none" xmlns="http://www.w3.org/2000/svg">
<g clip-path="url(#clip0_695_31545)">
<path d="M4.63802 3.55489H4.69812C4.96353 3.56962 5.2151 3.68157 5.40405 3.87052C5.60722 4.07369 5.72135 4.34924 5.72135 4.63656V7.08322C5.72135 7.37054 5.60722 7.64609 5.40405 7.84925C5.20089 8.05242 4.92534 8.16656 4.63802 8.16656C4.3507 8.16656 4.07515 8.05242 3.87199 7.84925C3.66882 7.64609 3.55469 7.37054 3.55469 7.08322V4.63822C3.55469 4.3509 3.66882 4.07535 3.87199 3.87219C4.07515 3.66903 4.3507 3.55489 4.63802 3.55489ZM10.4722 9.33322H15.3647C15.9614 9.33322 16.5337 9.09617 16.9557 8.67421C17.3776 8.25226 17.6147 7.67996 17.6147 7.08322V4.63656C17.6147 4.03982 17.3776 3.46752 16.9557 3.04557C16.5337 2.62361 15.9614 2.38656 15.3647 2.38656H10.4722C9.87545 2.38656 9.30315 2.62361 8.8812 3.04557C8.45924 3.46752 8.22219 4.03982 8.22219 4.63656V7.08322C8.22219 7.67996 8.45924 8.25226 8.8812 8.67421C9.30315 9.09617 9.87545 9.33322 10.4722 9.33322ZM9.70616 3.87052C9.90932 3.66736 10.1849 3.55322 10.4722 3.55322H15.3647C15.652 3.55322 15.9276 3.66736 16.1307 3.87052C16.3339 4.07369 16.448 4.34924 16.448 4.63656V7.08322C16.448 7.37054 16.3339 7.64609 16.1307 7.84925C15.9276 8.05242 15.652 8.16656 15.3647 8.16656H10.4722C10.1849 8.16656 9.90932 8.05242 9.70616 7.84926C9.50299 7.64609 9.38885 7.37054 9.38885 7.08322V4.63656C9.38885 4.34924 9.50299 4.07369 9.70616 3.87052ZM3.04703 8.67421C3.46899 9.09617 4.04128 9.33322 4.63802 9.33322C4.93349 9.33322 5.22608 9.27502 5.49906 9.16195C5.77204 9.04888 6.02008 8.88314 6.22901 8.67421C6.43794 8.46528 6.60368 8.21724 6.71675 7.94426C6.82982 7.67128 6.88802 7.3787 6.88802 7.08322V4.63656C6.88802 4.03982 6.65097 3.46752 6.22901 3.04557C5.80705 2.62361 5.23476 2.38656 4.63802 2.38656C4.04128 2.38656 3.46899 2.62361 3.04703 3.04557C2.62507 3.46752 2.38802 4.03982 2.38802 4.63656V7.08322C2.38802 7.67996 2.62507 8.25226 3.04703 8.67421ZM4.63802 17.6132H15.3647L17.448 15.3616H17.6147V15.3614V12.9166C17.6147 12.3198 17.3776 11.7475 16.9557 11.3256C16.5337 10.9036 15.9614 10.6666 15.3647 10.6666H4.63802C4.04128 10.6666 3.46899 10.9036 3.04703 11.3256C2.62507 11.7475 2.38802 12.3198 2.38802 12.9166V15.3632C2.38802 15.96 2.62507 16.5323 3.04703 16.9542C3.46899 17.3762 4.04128 17.6132 4.63802 17.6132ZM3.87199 12.1505C4.07515 11.9474 4.3507 11.8332 4.63802 11.8332H15.3647C15.652 11.8332 15.9276 11.9474 16.1307 12.1505C16.3339 12.3537 16.448 12.6292 16.448 12.9166V15.3616C16.448 15.6489 16.3339 15.9244 16.1307 16.1276C15.9276 16.3308 15.652 16.4449 15.3647 16.4449H4.63802C4.3507 16.4449 4.07515 16.3308 3.87199 16.1276C3.66882 15.9244 3.55469 15.6489 3.55469 15.3616V12.9166C3.55469 12.6292 3.66882 12.3537 3.87199 12.1505Z" fill="#046C56" stroke="#046C56" stroke-width="0.333333"/>
</g>
<defs>
<clipPath id="clip0_695_31545">
<rect width="20" height="20" fill="white"/>
</clipPath>
</defs>
</svg>
