<svg width="20" height="20" viewBox="0 0 20 20" fill="none" xmlns="http://www.w3.org/2000/svg">
<g clip-path="url(#clip0_695_4021)">
<path d="M10.6554 2.58882L10.6554 2.58879C10.5945 2.46699 10.501 2.36455 10.3852 2.29292C10.2694 2.2213 10.1359 2.18332 9.99978 2.18325L9.99983 2.08325M10.6554 2.58882L4.68271 17.0484L5.45602 12.3202L5.46443 12.2688L5.42715 12.2325L1.98798 8.87915L1.98794 8.87911C1.88989 8.78362 1.82052 8.66259 1.78768 8.52972C1.75484 8.39686 1.75984 8.25745 1.80211 8.12727C1.84439 7.9971 1.92225 7.88135 2.02688 7.79312C2.13152 7.7049 2.25876 7.64772 2.39421 7.62805L2.39422 7.62805L7.11922 6.94138L7.1709 6.93387L7.19427 6.88715L9.34427 2.58882L9.34429 2.58879C9.40515 2.46699 9.49871 2.36455 9.6145 2.29292C9.73029 2.2213 9.86374 2.18332 9.99989 2.18325L9.99983 2.08325M10.6554 2.58882L12.8054 6.88715L12.8288 6.93387L12.8805 6.94138L17.6055 7.62805L17.6055 7.62805C17.7409 7.64772 17.8681 7.7049 17.9728 7.79312C18.0774 7.88135 18.1553 7.9971 18.1976 8.12727C18.2398 8.25745 18.2448 8.39686 18.212 8.52973C18.1791 8.66259 18.1098 8.78362 18.0117 8.87911L18.0117 8.87915L14.5725 12.2325L14.5352 12.2688L14.5436 12.3202L15.317 17.0484L15.4157 17.0324M10.6554 2.58882L9.25483 2.54409C9.32399 2.40568 9.43032 2.28927 9.5619 2.20788C9.69347 2.12649 9.84512 2.08333 9.99983 2.08325M9.99983 2.08325C10.1546 2.08333 10.3062 2.12649 10.4378 2.20788C10.5694 2.28927 10.6757 2.40568 10.7448 2.54409L12.8948 6.84242L17.6198 7.52909C17.7737 7.55144 17.9183 7.61642 18.0372 7.71667C18.1562 7.81693 18.2446 7.94846 18.2927 8.09639C18.3407 8.24431 18.3464 8.40273 18.3091 8.55372C18.2717 8.70471 18.1929 8.84224 18.0815 8.95075L14.6423 12.3041L15.4157 17.0324M15.4157 17.0324C15.4405 17.1855 15.4222 17.3424 15.3627 17.4856C15.3032 17.6289 15.2049 17.7526 15.0789 17.843C14.9529 17.9334 14.8042 17.9869 14.6495 17.9974C14.4948 18.0079 14.3402 17.975 14.2032 17.9024M15.4157 17.0324L15.317 17.0486M14.2032 17.9024L15.317 17.0486M14.2032 17.9024L14.25 17.8141M14.2032 17.9024L14.25 17.814M14.2032 17.9024L9.99983 15.6724M14.2032 17.9024L9.99983 15.6724M15.317 17.0486C15.3388 17.1832 15.3227 17.3213 15.2703 17.4473C15.218 17.5733 15.1315 17.6822 15.0206 17.7618C14.9097 17.8413 14.7789 17.8884 14.6427 17.8976C14.5066 17.9068 14.3706 17.8779 14.25 17.8141M15.317 17.0486L14.25 17.8141M14.25 17.8141C14.25 17.8141 14.25 17.8141 14.25 17.814M14.25 17.814L10.0467 15.5841L9.99983 15.5592L9.95297 15.5841L5.74971 17.814L5.7965 17.9024M14.25 17.814L9.99983 15.6724M9.99983 15.6724L5.7965 17.9024M5.7965 17.9024L5.74963 17.8141M5.7965 17.9024C5.65946 17.975 5.50488 18.0079 5.35017 17.9974C5.19546 17.9869 5.04674 17.9334 4.92075 17.843C4.79476 17.7526 4.69649 17.6289 4.637 17.4856L5.74963 17.8141M5.74963 17.8141C5.62905 17.8779 5.49306 17.9068 5.35694 17.8976M5.74963 17.8141L5.35694 17.8976M5.35694 17.8976C5.22079 17.8884 5.08992 17.8413 4.97905 17.7618M5.35694 17.8976L4.97905 17.7618M4.97905 17.7618C4.86818 17.6822 4.7817 17.5733 4.72935 17.4473M4.97905 17.7618L4.72935 17.4473M4.72935 17.4473C4.67701 17.3213 4.66085 17.1832 4.68269 17.0486L4.72935 17.4473ZM10.0893 4.73518L9.99981 4.55636L9.91039 4.7352L8.31206 7.93186L8.31202 7.93194C8.25923 8.03773 8.18165 8.1292 8.08588 8.19853C7.99012 8.26787 7.87901 8.31302 7.76202 8.33014L4.27545 8.83679L4.07494 8.86593L4.22003 9.00736L6.7617 11.4849L6.76172 11.4849C6.84624 11.5672 6.90965 11.6688 6.94654 11.7809C6.98344 11.8929 6.99274 12.0123 6.97365 12.1287L6.97365 12.1288L6.40115 15.6263L6.36857 15.8253L6.54671 15.7308L9.65588 14.0808L9.6559 14.0807C9.76182 14.0245 9.87991 13.9951 9.99983 13.9951C10.1198 13.9951 10.2379 14.0245 10.3438 14.0807L10.3438 14.0808L13.453 15.7308L13.6311 15.8253L13.5985 15.6263L13.026 12.1288C13.0071 12.0125 13.0164 11.8933 13.0533 11.7813C13.0902 11.6694 13.1536 11.568 13.238 11.4857L13.238 11.4857L15.7796 9.00735L15.9247 8.86593L15.7242 8.83679L12.2385 8.33014C12.1215 8.31302 12.0104 8.26787 11.9146 8.19853C11.8188 8.1292 11.7413 8.03773 11.6885 7.93194L11.6884 7.93185L10.0893 4.73518Z" fill="#046C56" stroke="white" stroke-width="0.2"/>
</g>
<defs>
<clipPath id="clip0_695_4021">
<rect width="20" height="20" fill="white"/>
</clipPath>
</defs>
</svg>
