<svg width="20" height="20" viewBox="0 0 20 20" fill="none" xmlns="http://www.w3.org/2000/svg">
<g clip-path="url(#clip0_29_3302)">
<path d="M4.63802 3.55498H4.69812C4.96353 3.56972 5.2151 3.68166 5.40405 3.87062C5.60722 4.07378 5.72135 4.34933 5.72135 4.63665V7.08331C5.72135 7.37063 5.60722 7.64618 5.40405 7.84935C5.20089 8.05251 4.92534 8.16665 4.63802 8.16665C4.3507 8.16665 4.07515 8.05251 3.87199 7.84935C3.66882 7.64618 3.55469 7.37063 3.55469 7.08331V4.63831C3.55469 4.351 3.66882 4.07545 3.87199 3.87228C4.07515 3.66912 4.3507 3.55498 4.63802 3.55498ZM10.4722 9.33331H15.3647C15.9614 9.33331 16.5337 9.09626 16.9557 8.6743C17.3776 8.25235 17.6147 7.68005 17.6147 7.08331V4.63665C17.6147 4.03991 17.3776 3.46761 16.9557 3.04566C16.5337 2.6237 15.9614 2.38665 15.3647 2.38665H10.4722C9.87545 2.38665 9.30315 2.6237 8.8812 3.04566C8.45924 3.46761 8.22219 4.03991 8.22219 4.63665V7.08331C8.22219 7.68005 8.45924 8.25235 8.8812 8.6743C9.30315 9.09626 9.87545 9.33331 10.4722 9.33331ZM9.70616 3.87062C9.90932 3.66745 10.1849 3.55331 10.4722 3.55331H15.3647C15.652 3.55331 15.9276 3.66745 16.1307 3.87062C16.3339 4.07378 16.448 4.34933 16.448 4.63665V7.08331C16.448 7.37063 16.3339 7.64618 16.1307 7.84935C15.9276 8.05251 15.652 8.16665 15.3647 8.16665H10.4722C10.1849 8.16665 9.90932 8.05251 9.70616 7.84935C9.50299 7.64618 9.38885 7.37063 9.38885 7.08331V4.63665C9.38885 4.34933 9.50299 4.07378 9.70616 3.87062ZM3.04703 8.6743C3.46899 9.09626 4.04128 9.33331 4.63802 9.33331C4.93349 9.33331 5.22608 9.27512 5.49906 9.16204C5.77204 9.04897 6.02008 8.88324 6.22901 8.6743C6.43794 8.46537 6.60368 8.21733 6.71675 7.94435C6.82982 7.67137 6.88802 7.37879 6.88802 7.08331V4.63665C6.88802 4.03991 6.65097 3.46761 6.22901 3.04566C5.80705 2.6237 5.23476 2.38665 4.63802 2.38665C4.04128 2.38665 3.46899 2.6237 3.04703 3.04566C2.62507 3.46761 2.38802 4.03991 2.38802 4.63665V7.08331C2.38802 7.68005 2.62507 8.25235 3.04703 8.6743ZM4.63802 17.6133H15.3647L17.448 15.3616H17.6147V15.3615V12.9166C17.6147 12.3199 17.3776 11.7476 16.9557 11.3257C16.5337 10.9037 15.9614 10.6666 15.3647 10.6666H4.63802C4.04128 10.6666 3.46899 10.9037 3.04703 11.3257C2.62507 11.7476 2.38802 12.3199 2.38802 12.9166V15.3633C2.38802 15.9601 2.62507 16.5323 3.04703 16.9543C3.46899 17.3763 4.04128 17.6133 4.63802 17.6133ZM3.87199 12.1506C4.07515 11.9474 4.3507 11.8333 4.63802 11.8333H15.3647C15.652 11.8333 15.9276 11.9474 16.1307 12.1506C16.3339 12.3538 16.448 12.6293 16.448 12.9166V15.3616C16.448 15.649 16.3339 15.9245 16.1307 16.1277C15.9276 16.3308 15.652 16.445 15.3647 16.445H4.63802C4.3507 16.445 4.07515 16.3308 3.87199 16.1277C3.66882 15.9245 3.55469 15.649 3.55469 15.3616V12.9166C3.55469 12.6293 3.66882 12.3538 3.87199 12.1506Z" fill="#046C56" stroke="#046C56" stroke-width="0.333333"/>
</g>
<defs>
<clipPath id="clip0_29_3302">
<rect width="20" height="20" fill="white"/>
</clipPath>
</defs>
</svg>
