<svg width="24" height="24" viewBox="0 0 24 24" fill="none" xmlns="http://www.w3.org/2000/svg">
<path d="M10.9015 3.04249C11.351 2.13249 12.649 2.13249 13.0985 3.04249L15.5245 7.95849L20.9495 8.74698C21.9545 8.89298 22.356 10.128 21.6285 10.8365L17.7035 14.663L18.63 20.0665C18.8015 21.0665 17.751 21.83 16.8525 21.3575L12 18.8065L7.14752 21.3575C6.24902 21.83 5.19852 21.067 5.37002 20.066L6.29702 14.663L2.37152 10.8365C1.64402 10.128 2.04552 8.89298 3.05002 8.74698L8.47502 7.95849L10.9015 3.04249ZM12 3.64149L9.59002 8.52349C9.50214 8.70152 9.3723 8.85553 9.21169 8.97224C9.05107 9.08896 8.8645 9.16488 8.66802 9.19348L3.28002 9.97699L7.17902 13.7775C7.32122 13.9162 7.42757 14.0874 7.48889 14.2763C7.55021 14.4652 7.56467 14.6662 7.53102 14.862L6.61102 20.228L11.43 17.6945C11.6058 17.6021 11.8014 17.5538 12 17.5538C12.1986 17.5538 12.3942 17.6021 12.57 17.6945L17.389 20.228L16.469 14.862C16.4354 14.6662 16.4498 14.4652 16.5112 14.2763C16.5725 14.0874 16.6788 13.9162 16.821 13.7775L20.72 9.97749L15.332 9.19449C15.1355 9.16596 14.9488 9.09007 14.7881 8.97335C14.6274 8.85663 14.4975 8.70258 14.4095 8.52449L12 3.64149Z" fill="#046C56"/>
</svg>
