<svg width="20" height="20" viewBox="0 0 20 20" fill="none" xmlns="http://www.w3.org/2000/svg">
<g clip-path="url(#clip0_695_4046)">
<path d="M17.4998 10.625V13.75H2.49976V3.75H8.74976V2.5H2.49976C2.16824 2.5 1.85029 2.6317 1.61587 2.86612C1.38145 3.10054 1.24976 3.41848 1.24976 3.75V13.75C1.24976 14.0815 1.38145 14.3995 1.61587 14.6339C1.85029 14.8683 2.16824 15 2.49976 15H7.49976V17.5H4.99976V18.75H14.9998V17.5H12.4998V15H17.4998C17.8313 15 18.1492 14.8683 18.3836 14.6339C18.6181 14.3995 18.7498 14.0815 18.7498 13.75V10.625H17.4998ZM11.2498 17.5H8.74976V15H11.2498V17.5Z" fill="#046C56"/>
<path d="M18.7498 6.25V5H17.4366C17.3555 4.60891 17.2002 4.23699 16.9791 3.90438L17.9104 2.97312L17.0266 2.08937L16.0954 3.02063C15.7628 2.79951 15.3908 2.64421 14.9998 2.56312V1.25H13.7498V2.56312C13.3587 2.64421 12.9867 2.79951 12.6541 3.02063L11.7229 2.08937L10.8391 2.97312L11.7704 3.90438C11.5493 4.23699 11.394 4.60891 11.3129 5H9.99976V6.25H11.3129C11.394 6.64109 11.5493 7.01301 11.7704 7.34562L10.8391 8.27688L11.7229 9.16062L12.6541 8.22937C12.9867 8.45049 13.3587 8.60579 13.7498 8.68688V10H14.9998V8.68688C15.3908 8.60579 15.7628 8.45049 16.0954 8.22937L17.0266 9.16062L17.9104 8.27688L16.9791 7.34562C17.2002 7.01301 17.3555 6.64109 17.4366 6.25H18.7498ZM14.3748 7.5C14.0039 7.5 13.6414 7.39003 13.3331 7.18401C13.0247 6.97798 12.7844 6.68514 12.6425 6.34253C12.5006 5.99992 12.4634 5.62292 12.5358 5.25921C12.6081 4.89549 12.7867 4.5614 13.0489 4.29917C13.3112 4.03695 13.6452 3.85838 14.009 3.78603C14.3727 3.71368 14.7497 3.75081 15.0923 3.89273C15.4349 4.03464 15.7277 4.27496 15.9338 4.58331C16.1398 4.89165 16.2498 5.25416 16.2498 5.625C16.2493 6.12213 16.0516 6.59875 15.7 6.95028C15.3485 7.3018 14.8719 7.4995 14.3748 7.5Z" fill="#046C56"/>
</g>
<defs>
<clipPath id="clip0_695_4046">
<rect width="20" height="20" fill="white"/>
</clipPath>
</defs>
</svg>
