<svg width="20" height="20" viewBox="0 0 20 20" fill="none" xmlns="http://www.w3.org/2000/svg">
<g clip-path="url(#clip0_695_4066)">
<path d="M2.56855 11.621C2.12771 10.8293 1.90771 10.4326 1.90771 10.0001C1.90771 9.56763 2.12771 9.1718 2.56855 8.38013L3.69188 6.35846L4.88021 4.3743C5.34605 3.5968 5.57855 3.20763 5.95271 2.99096C6.32771 2.77513 6.78021 2.76846 7.68605 2.75346L10.0002 2.7168L12.3127 2.75346C13.2194 2.76846 13.6719 2.77513 14.046 2.9918C14.4202 3.20846 14.6544 3.5968 15.1194 4.3743L16.3085 6.35846L17.4335 8.38013C17.8735 9.1718 18.0935 9.56763 18.0935 10.0001C18.0935 10.4326 17.8735 10.8285 17.4327 11.6201L16.3085 13.6418L15.1202 15.626C14.6544 16.4035 14.4219 16.7926 14.0477 17.0093C13.6727 17.2251 13.2202 17.2318 12.3144 17.2468L10.0002 17.2835L7.68771 17.2468C6.78105 17.2318 6.32855 17.2251 5.95438 17.0085C5.58021 16.7918 5.34605 16.4035 4.88105 15.626L3.69188 13.6418L2.56855 11.621Z" stroke="#046C56" stroke-width="1.5"/>
<path d="M9.99951 12.5C11.3802 12.5 12.4995 11.3807 12.4995 10C12.4995 8.61929 11.3802 7.5 9.99951 7.5C8.6188 7.5 7.49951 8.61929 7.49951 10C7.49951 11.3807 8.6188 12.5 9.99951 12.5Z" stroke="#046C56" stroke-width="1.5"/>
</g>
<defs>
<clipPath id="clip0_695_4066">
<rect width="20" height="20" fill="white"/>
</clipPath>
</defs>
</svg>
