<svg width="20" height="20" viewBox="0 0 20 20" fill="none" xmlns="http://www.w3.org/2000/svg">
<path d="M6.97241 8.63883L12.4724 5.8055M6.97241 10.8055L12.4724 13.6388M2.22241 9.72217C2.22241 10.3852 2.4858 11.0211 2.95465 11.4899C3.42349 11.9588 4.05937 12.2222 4.72241 12.2222C5.38545 12.2222 6.02134 11.9588 6.49018 11.4899C6.95902 11.0211 7.22241 10.3852 7.22241 9.72217C7.22241 9.05913 6.95902 8.42324 6.49018 7.9544C6.02134 7.48556 5.38545 7.22217 4.72241 7.22217C4.05937 7.22217 3.42349 7.48556 2.95465 7.9544C2.4858 8.42324 2.22241 9.05913 2.22241 9.72217ZM12.2224 4.72217C12.2224 5.38521 12.4858 6.02109 12.9546 6.48994C13.4235 6.95878 14.0594 7.22217 14.7224 7.22217C15.3855 7.22217 16.0213 6.95878 16.4902 6.48994C16.959 6.02109 17.2224 5.38521 17.2224 4.72217C17.2224 4.05913 16.959 3.42324 16.4902 2.9544C16.0213 2.48556 15.3855 2.22217 14.7224 2.22217C14.0594 2.22217 13.4235 2.48556 12.9546 2.9544C12.4858 3.42324 12.2224 4.05913 12.2224 4.72217ZM12.2224 14.7222C12.2224 15.3852 12.4858 16.0211 12.9546 16.4899C13.4235 16.9588 14.0594 17.2222 14.7224 17.2222C15.3855 17.2222 16.0213 16.9588 16.4902 16.4899C16.959 16.0211 17.2224 15.3852 17.2224 14.7222C17.2224 14.0591 16.959 13.4232 16.4902 12.9544C16.0213 12.4856 15.3855 12.2222 14.7224 12.2222C14.0594 12.2222 13.4235 12.4856 12.9546 12.9544C12.4858 13.4232 12.2224 14.0591 12.2224 14.7222Z" stroke="#046C56" stroke-width="1.5" stroke-linecap="round" stroke-linejoin="round"/>
</svg>
