<svg width="20" height="20" viewBox="0 0 20 20" fill="none" xmlns="http://www.w3.org/2000/svg">
<path d="M16.6664 7.50008L15.0039 16.9551C14.9361 17.3412 14.7343 17.6911 14.4341 17.9432C14.1338 18.1953 13.7543 18.3334 13.3623 18.3334H6.63726C6.24521 18.3334 5.8657 18.1953 5.56544 17.9432C5.26519 17.6911 5.06341 17.3412 4.99559 16.9551L3.33309 7.50008M17.4998 5.00008H12.8123M12.8123 5.00008V3.33341C12.8123 2.89139 12.6367 2.46746 12.3241 2.1549C12.0115 1.84234 11.5876 1.66675 11.1456 1.66675H8.85392C8.41189 1.66675 7.98797 1.84234 7.67541 2.1549C7.36285 2.46746 7.18726 2.89139 7.18726 3.33341V5.00008M12.8123 5.00008H7.18726M2.49976 5.00008H7.18726" stroke="#046C56" stroke-width="1.5" stroke-linecap="round" stroke-linejoin="round"/>
</svg>
