<svg width="20" height="20" viewBox="0 0 20 20" fill="none" xmlns="http://www.w3.org/2000/svg">
<g clip-path="url(#clip0_695_4039)">
<path d="M14.1664 16.2499C14.1664 14.8691 12.3006 13.7499 9.99976 13.7499C7.69892 13.7499 5.83309 14.8691 5.83309 16.2499M17.4998 13.7499C17.4998 12.7249 16.4714 11.8441 14.9998 11.4583M2.49976 13.7499C2.49976 12.7249 3.52809 11.8441 4.99976 11.4583M14.9998 8.11325C15.2466 7.895 15.4479 7.63008 15.5921 7.33375C15.7362 7.03742 15.8203 6.71552 15.8396 6.38655C15.8589 6.05759 15.813 5.72806 15.7045 5.41692C15.5959 5.10577 15.427 4.81915 15.2073 4.57354C14.9876 4.32793 14.7215 4.12817 14.4244 3.98576C14.1272 3.84335 13.8048 3.76109 13.4757 3.74371C13.1467 3.72634 12.8174 3.77419 12.5069 3.88452C12.1964 3.99485 11.9108 4.16548 11.6664 4.38659M4.99976 8.11325C4.51 7.67004 4.21556 7.05103 4.18073 6.39142C4.1459 5.73181 4.37353 5.08523 4.81389 4.59291C5.25424 4.10059 5.87154 3.80255 6.53093 3.76389C7.19032 3.72523 7.83822 3.9491 8.33309 4.38659M9.99976 11.2499C9.33671 11.2499 8.70083 10.9865 8.23199 10.5177C7.76315 10.0488 7.49976 9.41296 7.49976 8.74992C7.49976 8.08688 7.76315 7.45099 8.23199 6.98215C8.70083 6.51331 9.33671 6.24992 9.99976 6.24992C10.6628 6.24992 11.2987 6.51331 11.7675 6.98215C12.2364 7.45099 12.4998 8.08688 12.4998 8.74992C12.4998 9.41296 12.2364 10.0488 11.7675 10.5177C11.2987 10.9865 10.6628 11.2499 9.99976 11.2499Z" stroke="#046C56" stroke-width="1.5" stroke-linecap="round" stroke-linejoin="round"/>
</g>
<defs>
<clipPath id="clip0_695_4039">
<rect width="20" height="20" fill="white"/>
</clipPath>
</defs>
</svg>
