<svg width="16" height="16" viewBox="0 0 16 16" fill="none" xmlns="http://www.w3.org/2000/svg">
<path d="M2.63802 1.55498H2.69812C2.96353 1.56972 3.2151 1.68166 3.40405 1.87062C3.60722 2.07378 3.72135 2.34933 3.72135 2.63665V5.08331C3.72135 5.37063 3.60722 5.64618 3.40405 5.84935C3.20089 6.05251 2.92534 6.16665 2.63802 6.16665C2.3507 6.16665 2.07515 6.05251 1.87199 5.84935C1.66882 5.64618 1.55469 5.37063 1.55469 5.08331V2.63831C1.55469 2.351 1.66882 2.07545 1.87199 1.87228C2.07515 1.66912 2.3507 1.55498 2.63802 1.55498ZM8.47219 7.33331H13.3647C13.9614 7.33331 14.5337 7.09626 14.9557 6.6743C15.3776 6.25235 15.6147 5.68005 15.6147 5.08331V2.63665C15.6147 2.03991 15.3776 1.46761 14.9557 1.04566C14.5337 0.6237 13.9614 0.386648 13.3647 0.386648H8.47219C7.87545 0.386648 7.30315 0.6237 6.8812 1.04566C6.45924 1.46761 6.22219 2.03991 6.22219 2.63665V5.08331C6.22219 5.68005 6.45924 6.25235 6.8812 6.6743C7.30315 7.09626 7.87545 7.33331 8.47219 7.33331ZM7.70616 1.87062C7.90932 1.66745 8.18487 1.55331 8.47219 1.55331H13.3647C13.652 1.55331 13.9276 1.66745 14.1307 1.87062C14.3339 2.07378 14.448 2.34933 14.448 2.63665V5.08331C14.448 5.37063 14.3339 5.64618 14.1307 5.84935C13.9276 6.05251 13.652 6.16665 13.3647 6.16665H8.47219C8.18487 6.16665 7.90932 6.05251 7.70616 5.84935C7.50299 5.64618 7.38885 5.37063 7.38885 5.08331V2.63665C7.38885 2.34933 7.50299 2.07378 7.70616 1.87062ZM1.04703 6.6743C1.46899 7.09626 2.04128 7.33331 2.63802 7.33331C2.93349 7.33331 3.22608 7.27512 3.49906 7.16204C3.77204 7.04897 4.02008 6.88324 4.22901 6.6743C4.43794 6.46537 4.60368 6.21733 4.71675 5.94435C4.82982 5.67137 4.88802 5.37879 4.88802 5.08331V2.63665C4.88802 2.03991 4.65097 1.46761 4.22901 1.04566C3.80705 0.6237 3.23476 0.386648 2.63802 0.386648C2.04128 0.386648 1.46899 0.6237 1.04703 1.04566C0.625074 1.46761 0.388021 2.03991 0.388021 2.63665V5.08331C0.388021 5.68005 0.625074 6.25235 1.04703 6.6743ZM2.63802 15.6133H13.3647L15.448 13.3616H15.6147V13.3615V10.9166C15.6147 10.3199 15.3776 9.74761 14.9557 9.32566C14.5337 8.9037 13.9614 8.66665 13.3647 8.66665H2.63802C2.04128 8.66665 1.46899 8.9037 1.04703 9.32566C0.625074 9.74761 0.388021 10.3199 0.388021 10.9166V13.3633C0.388021 13.9601 0.625074 14.5323 1.04703 14.9543C1.46899 15.3763 2.04128 15.6133 2.63802 15.6133ZM1.87199 10.1506C2.07515 9.94745 2.3507 9.83331 2.63802 9.83331H13.3647C13.652 9.83331 13.9276 9.94745 14.1307 10.1506C14.3339 10.3538 14.448 10.6293 14.448 10.9166V13.3616C14.448 13.649 14.3339 13.9245 14.1307 14.1277C13.9276 14.3308 13.652 14.445 13.3647 14.445H2.63802C2.3507 14.445 2.07515 14.3308 1.87199 14.1277C1.66882 13.9245 1.55469 13.649 1.55469 13.3616V10.9166C1.55469 10.6293 1.66882 10.3538 1.87199 10.1506Z" fill="#046C56" stroke="#046C56" stroke-width="0.333333"/>
</svg>
