<svg width="20" height="20" viewBox="0 0 20 20" fill="none" xmlns="http://www.w3.org/2000/svg">
<g clip-path="url(#clip0_695_4054)">
<mask id="path-1-outside-1_695_4054" maskUnits="userSpaceOnUse" x="1.30811" y="2.1416" width="17" height="16" fill="black">
<rect fill="white" x="1.30811" y="2.1416" width="17" height="16"/>
<path d="M4.99977 16.8583C4.25922 16.8583 3.62533 16.5949 3.09811 16.0683C2.57088 15.5416 2.30755 14.9077 2.30811 14.1666C2.30866 13.4255 2.57255 12.7916 3.09977 12.2649C3.627 11.7383 4.26033 11.4749 4.99977 11.4749C5.73922 11.4749 6.37311 11.7388 6.90144 12.2666C7.42977 12.7944 7.69311 13.4277 7.69144 14.1666C7.68977 14.9055 7.42588 15.5394 6.89977 16.0683C6.37366 16.5972 5.74033 16.8605 4.99977 16.8583ZM14.9998 16.8583C14.2592 16.8583 13.6253 16.5944 13.0981 16.0666C12.5709 15.5388 12.3076 14.9055 12.3081 14.1666C12.3087 13.4277 12.5726 12.7938 13.0998 12.2649C13.627 11.7361 14.2603 11.4727 14.9998 11.4749C15.7392 11.4772 16.3731 11.7411 16.9014 12.2666C17.4298 12.7922 17.6931 13.4255 17.6914 14.1666C17.6898 14.9077 17.4259 15.5416 16.8998 16.0683C16.3737 16.5949 15.7403 16.8583 14.9998 16.8583ZM4.99977 16.0249C5.51144 16.0249 5.94922 15.8427 6.31311 15.4783C6.677 15.1138 6.85894 14.6766 6.85894 14.1666C6.85894 13.6566 6.67672 13.2191 6.31227 12.8541C5.94783 12.4891 5.51033 12.3069 4.99977 12.3074C4.48922 12.308 4.05172 12.4902 3.68727 12.8541C3.32283 13.218 3.14061 13.6555 3.14061 14.1666C3.14061 14.6777 3.32283 15.1152 3.68727 15.4791C4.05172 15.843 4.48922 16.0252 4.99977 16.0258M14.9998 16.0258C15.5109 16.0258 15.9484 15.8436 16.3123 15.4791C16.6762 15.1147 16.8584 14.6772 16.8589 14.1666C16.8595 13.6561 16.6773 13.2186 16.3123 12.8541C15.9473 12.4897 15.5098 12.3074 14.9998 12.3074C14.4898 12.3074 14.0523 12.4897 13.6873 12.8541C13.3223 13.2186 13.1401 13.6561 13.1406 14.1666C13.1412 14.6772 13.3234 15.1147 13.6873 15.4791C14.0512 15.8436 14.4889 16.0255 15.0006 16.0249M9.99977 8.52495C9.25922 8.52495 8.62533 8.26106 8.09811 7.73328C7.57088 7.2055 7.30755 6.57217 7.30811 5.83328C7.30866 5.09439 7.57255 4.4605 8.09977 3.93162C8.627 3.40273 9.26033 3.13939 9.99977 3.14162C10.7392 3.14384 11.3731 3.40773 11.9014 3.93328C12.4298 4.45884 12.6931 5.09217 12.6914 5.83328C12.6898 6.57439 12.4259 7.20828 11.8998 7.73495C11.3737 8.26162 10.7403 8.52495 9.99977 8.52495ZM9.99977 7.69162C10.5114 7.69162 10.9492 7.50939 11.3131 7.14495C11.677 6.7805 11.8589 6.34328 11.8589 5.83328C11.8589 5.32328 11.6767 4.88578 11.3123 4.52078C10.9478 4.15578 10.5103 3.97356 9.99977 3.97412C9.48922 3.97467 9.05172 4.15689 8.68727 4.52078C8.32283 4.88467 8.14061 5.32217 8.14061 5.83328C8.14061 6.34439 8.32283 6.78189 8.68727 7.14578C9.05172 7.50967 9.48922 7.69189 9.99977 7.69245"/>
</mask>
<path d="M4.99977 16.8583C4.25922 16.8583 3.62533 16.5949 3.09811 16.0683C2.57088 15.5416 2.30755 14.9077 2.30811 14.1666C2.30866 13.4255 2.57255 12.7916 3.09977 12.2649C3.627 11.7383 4.26033 11.4749 4.99977 11.4749C5.73922 11.4749 6.37311 11.7388 6.90144 12.2666C7.42977 12.7944 7.69311 13.4277 7.69144 14.1666C7.68977 14.9055 7.42588 15.5394 6.89977 16.0683C6.37366 16.5972 5.74033 16.8605 4.99977 16.8583ZM14.9998 16.8583C14.2592 16.8583 13.6253 16.5944 13.0981 16.0666C12.5709 15.5388 12.3076 14.9055 12.3081 14.1666C12.3087 13.4277 12.5726 12.7938 13.0998 12.2649C13.627 11.7361 14.2603 11.4727 14.9998 11.4749C15.7392 11.4772 16.3731 11.7411 16.9014 12.2666C17.4298 12.7922 17.6931 13.4255 17.6914 14.1666C17.6898 14.9077 17.4259 15.5416 16.8998 16.0683C16.3737 16.5949 15.7403 16.8583 14.9998 16.8583ZM4.99977 16.0249C5.51144 16.0249 5.94922 15.8427 6.31311 15.4783C6.677 15.1138 6.85894 14.6766 6.85894 14.1666C6.85894 13.6566 6.67672 13.2191 6.31227 12.8541C5.94783 12.4891 5.51033 12.3069 4.99977 12.3074C4.48922 12.308 4.05172 12.4902 3.68727 12.8541C3.32283 13.218 3.14061 13.6555 3.14061 14.1666C3.14061 14.6777 3.32283 15.1152 3.68727 15.4791C4.05172 15.843 4.48922 16.0252 4.99977 16.0258M14.9998 16.0258C15.5109 16.0258 15.9484 15.8436 16.3123 15.4791C16.6762 15.1147 16.8584 14.6772 16.8589 14.1666C16.8595 13.6561 16.6773 13.2186 16.3123 12.8541C15.9473 12.4897 15.5098 12.3074 14.9998 12.3074C14.4898 12.3074 14.0523 12.4897 13.6873 12.8541C13.3223 13.2186 13.1401 13.6561 13.1406 14.1666C13.1412 14.6772 13.3234 15.1147 13.6873 15.4791C14.0512 15.8436 14.4889 16.0255 15.0006 16.0249M9.99977 8.52495C9.25922 8.52495 8.62533 8.26106 8.09811 7.73328C7.57088 7.2055 7.30755 6.57217 7.30811 5.83328C7.30866 5.09439 7.57255 4.4605 8.09977 3.93162C8.627 3.40273 9.26033 3.13939 9.99977 3.14162C10.7392 3.14384 11.3731 3.40773 11.9014 3.93328C12.4298 4.45884 12.6931 5.09217 12.6914 5.83328C12.6898 6.57439 12.4259 7.20828 11.8998 7.73495C11.3737 8.26162 10.7403 8.52495 9.99977 8.52495ZM9.99977 7.69162C10.5114 7.69162 10.9492 7.50939 11.3131 7.14495C11.677 6.7805 11.8589 6.34328 11.8589 5.83328C11.8589 5.32328 11.6767 4.88578 11.3123 4.52078C10.9478 4.15578 10.5103 3.97356 9.99977 3.97412C9.48922 3.97467 9.05172 4.15689 8.68727 4.52078C8.32283 4.88467 8.14061 5.32217 8.14061 5.83328C8.14061 6.34439 8.32283 6.78189 8.68727 7.14578C9.05172 7.50967 9.48922 7.69189 9.99977 7.69245" fill="#046C56"/>
<path d="M4.99977 16.8583L5.00067 16.5583H4.99977V16.8583ZM4.99977 16.5583C4.33929 16.5583 3.78149 16.3269 3.31013 15.856L2.88609 16.2805C3.46916 16.863 4.17915 17.1583 4.99977 17.1583V16.5583ZM3.31013 15.856C2.83894 15.3853 2.60761 14.8278 2.60811 14.1668L2.00811 14.1664C2.00749 14.9877 2.30283 15.6979 2.88609 16.2805L3.31013 15.856ZM2.60811 14.1668C2.6086 13.5058 2.84049 12.948 3.31179 12.4772L2.88775 12.0527C2.30461 12.6352 2.00872 13.3452 2.00811 14.1664L2.60811 14.1668ZM3.31179 12.4772C3.78326 12.0062 4.34053 11.775 4.99977 11.775V11.1749C4.18012 11.1749 3.47073 11.4703 2.88775 12.0527L3.31179 12.4772ZM4.99977 11.775C5.65882 11.775 6.21671 12.0066 6.68942 12.4789L7.11346 12.0544C6.5295 11.471 5.81961 11.1749 4.99977 11.1749V11.775ZM6.68942 12.4789C7.16194 12.9509 7.39292 13.5079 7.39144 14.1659L7.99144 14.1673C7.99329 13.3476 7.69761 12.6379 7.11346 12.0544L6.68942 12.4789ZM7.39144 14.1659C7.38995 14.8249 7.15804 15.3833 6.68708 15.8567L7.11246 16.2799C7.69373 15.6955 7.98959 14.9861 7.99144 14.1673L7.39144 14.1659ZM6.68708 15.8567C6.21703 16.3292 5.66042 16.5603 5.00067 16.5583L4.99887 17.1583C5.82024 17.1607 6.53029 16.8651 7.11246 16.2799L6.68708 15.8567ZM14.9998 16.5583C14.3395 16.5583 13.7818 16.3265 13.3104 15.8546L12.8859 16.2786C13.4689 16.8623 14.1789 17.1583 14.9998 17.1583V16.5583ZM13.3104 15.8546C12.8388 15.3825 12.6076 14.8253 12.6081 14.1668L12.0081 14.1664C12.0075 14.9857 12.303 15.6952 12.8859 16.2786L13.3104 15.8546ZM12.6081 14.1668C12.6086 13.5082 12.8403 12.9501 13.3122 12.4767L12.8873 12.0532C12.3048 12.6375 12.0087 13.3472 12.0081 14.1664L12.6081 14.1668ZM13.3122 12.4767C13.7836 12.0039 14.3404 11.773 14.9989 11.7749L15.0007 11.175C14.1803 11.1725 13.4704 11.4682 12.8873 12.0532L13.3122 12.4767ZM14.9989 11.7749C15.6586 11.7769 16.217 12.009 16.6899 12.4793L17.113 12.0539C16.5292 11.4732 15.8198 11.1774 15.0007 11.175L14.9989 11.7749ZM16.6899 12.4793C17.1618 12.9487 17.3929 13.5054 17.3914 14.1659L17.9914 14.1673C17.9933 13.3456 17.6978 12.6356 17.113 12.0539L16.6899 12.4793ZM17.3914 14.1659C17.39 14.8274 17.1579 15.3854 16.6875 15.8563L17.112 16.2803C17.6939 15.6978 17.9896 14.9881 17.9914 14.1673L17.3914 14.1659ZM16.6875 15.8563C16.2174 16.3269 15.6602 16.5583 14.9998 16.5583V17.1583C15.8204 17.1583 16.53 16.863 17.112 16.2803L16.6875 15.8563ZM4.99977 16.3249C5.59167 16.3249 6.10565 16.1106 6.5254 15.6903L6.10081 15.2663C5.79278 15.5748 5.43121 15.7249 4.99977 15.7249V16.3249ZM6.5254 15.6903C6.94483 15.2702 7.15894 14.757 7.15894 14.1666H6.55894C6.55894 14.5963 6.40916 14.9575 6.10081 15.2663L6.5254 15.6903ZM7.15894 14.1666C7.15894 13.5761 6.94446 13.0627 6.52457 12.6421L6.09998 13.0661C6.40898 13.3756 6.55894 13.7371 6.55894 14.1666H7.15894ZM6.52457 12.6421C6.10442 12.2214 5.59068 12.0068 4.99945 12.0074L5.0001 12.6074C5.42998 12.607 5.79124 12.7569 6.09998 13.0661L6.52457 12.6421ZM4.99945 12.0074C4.40874 12.0081 3.89536 12.2224 3.4753 12.6418L3.89924 13.0664C4.20807 12.7581 4.56969 12.6079 5.0001 12.6074L4.99945 12.0074ZM3.4753 12.6418C3.05498 13.0615 2.84061 13.5752 2.84061 14.1666H3.44061C3.44061 13.7358 3.59068 13.3745 3.89924 13.0664L3.4753 12.6418ZM2.84061 14.1666C2.84061 14.7581 3.05498 15.2717 3.4753 15.6914L3.89924 15.2668C3.59068 14.9587 3.44061 14.5974 3.44061 14.1666H2.84061ZM3.4753 15.6914C3.89536 16.1108 4.40874 16.3251 4.99945 16.3258L5.0001 15.7258C4.56969 15.7253 4.20807 15.5752 3.89924 15.2668L3.4753 15.6914ZM14.9998 16.3258C15.5912 16.3258 16.1049 16.1114 16.5246 15.6911L16.1 15.2671C15.7919 15.5757 15.4306 15.7258 14.9998 15.7258V16.3258ZM16.5246 15.6911C16.944 15.271 17.1583 14.7576 17.1589 14.1669L16.5589 14.1663C16.5585 14.5967 16.4083 14.9583 16.1 15.2671L16.5246 15.6911ZM17.1589 14.1669C17.1596 13.5757 16.945 13.062 16.5242 12.6418L16.1003 13.0664C16.4095 13.3752 16.5594 13.7364 16.5589 14.1663L17.1589 14.1669ZM16.5242 12.6418C16.1037 12.2219 15.5903 12.0074 14.9998 12.0074V12.6074C15.4293 12.6074 15.7908 12.7574 16.1003 13.0664L16.5242 12.6418ZM14.9998 12.0074C14.4093 12.0074 13.8958 12.2219 13.4753 12.6418L13.8992 13.0664C14.2087 12.7574 14.5703 12.6074 14.9998 12.6074V12.0074ZM13.4753 12.6418C13.0545 13.062 12.84 13.5757 12.8406 14.1669L13.4406 14.1663C13.4401 13.7364 13.59 13.3752 13.8992 13.0664L13.4753 12.6418ZM12.8406 14.1669C12.8412 14.7576 13.0556 15.271 13.475 15.6911L13.8996 15.2671C13.5912 14.9583 13.4411 14.5967 13.4406 14.1663L12.8406 14.1669ZM13.475 15.6911C13.8948 16.1116 14.4089 16.3256 15.0009 16.3249L15.0003 15.7249C14.569 15.7254 14.2075 15.5756 13.8996 15.2671L13.475 15.6911ZM9.99977 8.22495C9.33949 8.22495 8.78177 7.99318 8.31035 7.52126L7.88586 7.9453C8.46889 8.52894 9.17894 8.82495 9.99977 8.82495V8.22495ZM8.31035 7.52126C7.83877 7.04918 7.60761 6.49195 7.60811 5.83351L7.00811 5.83306C7.00749 6.65239 7.303 7.36183 7.88586 7.9453L8.31035 7.52126ZM7.60811 5.83351C7.6086 5.17489 7.84035 4.6168 8.31224 4.14341L7.88731 3.71982C7.30476 4.30421 7.00872 5.0139 7.00811 5.83306L7.60811 5.83351ZM8.31224 4.14341C8.78358 3.67058 9.34036 3.43964 9.99887 3.44161L10.0007 2.84162C9.1803 2.83915 8.47041 3.13488 7.88731 3.71982L8.31224 4.14341ZM9.99887 3.44161C10.6586 3.4436 11.217 3.67563 11.6899 4.14597L12.113 3.72059C11.5292 3.13982 10.8198 2.84408 10.0007 2.84162L9.99887 3.44161ZM11.6899 4.14597C12.1618 4.61541 12.3929 5.17207 12.3914 5.83261L12.9914 5.83396C12.9933 5.01228 12.6978 4.30227 12.113 3.72059L11.6899 4.14597ZM12.3914 5.83261C12.39 6.49404 12.1579 7.05207 11.6875 7.52293L12.112 7.94697C12.6939 7.3645 12.9896 6.65474 12.9914 5.83396L12.3914 5.83261ZM11.6875 7.52293C11.2174 7.9936 10.6602 8.22495 9.99977 8.22495V8.82495C10.8204 8.82495 11.53 8.52963 12.112 7.94697L11.6875 7.52293ZM9.99977 7.99162C10.5917 7.99162 11.1057 7.77731 11.5254 7.35692L11.1008 6.93298C10.7928 7.24148 10.4312 7.39162 9.99977 7.39162V7.99162ZM11.5254 7.35692C11.9448 6.93685 12.1589 6.42364 12.1589 5.83328H11.5589C11.5589 6.26292 11.4092 6.62416 11.1008 6.93298L11.5254 7.35692ZM12.1589 5.83328C12.1589 5.24279 11.9445 4.72934 11.5246 4.30881L11.1 4.73275C11.409 5.04222 11.5589 5.40378 11.5589 5.83328H12.1589ZM11.5246 4.30881C11.1044 3.88802 10.5907 3.67347 9.99945 3.67412L10.0001 4.27412C10.43 4.27365 10.7912 4.42354 11.1 4.73275L11.5246 4.30881ZM9.99945 3.67412C9.40874 3.67476 8.89536 3.88907 8.4753 4.30849L8.89924 4.73308C9.20807 4.42472 9.56969 4.27458 10.0001 4.27412L9.99945 3.67412ZM8.4753 4.30849C8.05498 4.72817 7.84061 5.24185 7.84061 5.83328H8.44061C8.44061 5.4025 8.59067 5.04117 8.89924 4.73308L8.4753 4.30849ZM7.84061 5.83328C7.84061 6.42472 8.05498 6.9384 8.4753 7.35808L8.89924 6.93349C8.59067 6.62539 8.44061 6.26407 8.44061 5.83328H7.84061ZM8.4753 7.35808C8.89536 7.7775 9.40874 7.99181 9.99945 7.99245L10.0001 7.39245C9.56969 7.39198 9.20807 7.24185 8.89924 6.93349L8.4753 7.35808Z" fill="#046C56" mask="url(#path-1-outside-1_695_4054)"/>
</g>
<defs>
<clipPath id="clip0_695_4054">
<rect width="20" height="20" fill="white"/>
</clipPath>
</defs>
</svg>
