<svg width="16" height="16" viewBox="0 0 16 16" fill="none" xmlns="http://www.w3.org/2000/svg">
<path d="M9.0559 2.21109C8.61882 1.91904 8.10496 1.76316 7.57928 1.76315L9.0559 2.21109ZM9.0559 2.21109C9.49299 2.50314 9.83366 2.91825 10.0348 3.40392M9.0559 2.21109L10.0348 3.40392M10.0348 3.40392C10.236 3.88958 10.2886 4.424 10.1861 4.93958M10.0348 3.40392L10.1861 4.93958M10.1861 4.93958C10.0835 5.45516 9.83038 5.92875 9.45867 6.30046M10.1861 4.93958L9.45867 6.30046M9.45867 6.30046C9.08696 6.67218 8.61337 6.92532 8.09778 7.02787M9.45867 6.30046L8.09778 7.02787M8.09778 7.02787C7.5822 7.13043 7.04779 7.07779 6.56212 6.87662M8.09778 7.02787L6.56212 6.87662M6.56212 6.87662C6.07646 6.67545 5.66135 6.33478 5.3693 5.8977M6.56212 6.87662L5.3693 5.8977M5.3693 5.8977C5.07826 5.46213 4.92245 4.95032 4.92137 4.42656M5.3693 5.8977L4.92137 4.42656M4.92137 4.42656L4.92426 4.30082C4.95516 3.61835 5.24768 2.97391 5.7412 2.50134C6.23589 2.02764 6.89435 1.7632 7.57926 1.76315L4.92137 4.42656ZM8.84241 9.3421C9.54733 9.3421 10.2234 9.62213 10.7218 10.1206C11.2203 10.619 11.5003 11.2951 11.5003 12V12.6316C11.5003 12.834 11.4199 13.0281 11.2768 13.1712C11.1337 13.3143 10.9396 13.3947 10.7372 13.3947H4.42136C4.21896 13.3947 4.02485 13.3143 3.88173 13.1712C3.73861 13.0281 3.6582 12.834 3.6582 12.6316V12C3.6582 11.2951 3.93823 10.619 4.43668 10.1206C4.93513 9.62213 5.61118 9.3421 6.3161 9.3421H8.84241Z" stroke="#6B7280"/>
</svg>
