<svg width="200" height="64" viewBox="0 0 200 64" fill="none" xmlns="http://www.w3.org/2000/svg">
<g clip-path="url(#clip0_22_2250)">
<mask id="mask0_22_2250" style="mask-type:luminance" maskUnits="userSpaceOnUse" x="-229" y="-760" width="1349" height="890">
<path d="M-228.206 129.578H1119.59V-759.593H-228.206V129.578Z" fill="white"/>
</mask>
<g mask="url(#mask0_22_2250)">
<path d="M12.5164 37.3516C10.5793 39.16 10.4681 40.7955 10.4681 42.605V43.4227V48.5032H6.2791V43.4227V42.605C6.2791 40.7955 6.16793 39.16 4.23082 37.3516V48.5032H0V33.8417H5.61432C6.75347 34.8114 7.70331 36.1244 8.3736 37.7171C9.01637 36.1454 9.99372 34.8114 11.1329 33.8417H16.7472V48.5032H12.5164V37.3516Z" fill="#046C56"/>
<path d="M22.9604 43.3483C23.0176 40.5032 23.3863 38.3251 24.0104 36.859C24.6344 38.3251 25.0031 40.5032 25.0604 43.3483H22.9604ZM18.7714 48.5037H22.9604V46.0977H25.0604V48.5037H29.2901V45.6465C29.2901 40.632 28.4503 36.7732 25.9288 33.8422H22.1228C19.6089 36.7523 18.7714 40.6111 18.7714 45.6465V48.5037Z" fill="#046C56"/>
<path d="M33.3326 39.3029H30.7274V33.4376H33.3326V39.3029Z" fill="#046C56"/>
<mask id="mask1_22_2250" style="mask-type:luminance" maskUnits="userSpaceOnUse" x="-229" y="-760" width="1349" height="890">
<path d="M-228.206 129.578H1119.59V-759.593H-228.206V129.578Z" fill="white"/>
</mask>
<g mask="url(#mask1_22_2250)">
<path d="M39.0455 43.3483C39.1028 40.5032 39.4715 38.3251 40.0955 36.859C40.7196 38.3251 41.0883 40.5032 41.1444 43.3483H39.0455ZM34.8565 48.5037H39.0455V46.0977H41.1444V48.5037H45.3753V45.6465C45.3753 40.632 44.5344 36.7732 42.0139 33.8422H38.208C35.6941 36.7523 34.8565 40.6111 34.8565 45.6465V48.5037Z" fill="#046C56"/>
<path d="M51.5086 36.6469H52.202C53.5063 36.6469 53.5613 37.0531 53.5613 38.0161V38.3804V43.9661V44.3293C53.5613 45.3133 53.5063 45.6985 52.202 45.6985H51.5086V36.6469ZM47.2778 33.8469V48.4985H52.924C56.3602 48.4985 57.8428 47.3352 57.8428 44.544V37.8026C57.8428 35.0312 56.3602 33.8469 52.924 33.8469H47.2778Z" fill="#046C56"/>
</g>
<path d="M59.6773 33.8468H68.2919V36.6468H63.9081V39.1034H68.1246V41.8627H63.9081V45.6984H68.4878V48.4984H59.6773V33.8468Z" fill="#046C56"/>
<mask id="mask2_22_2250" style="mask-type:luminance" maskUnits="userSpaceOnUse" x="-229" y="-760" width="1349" height="890">
<path d="M-228.206 129.578H1119.59V-759.593H-228.206V129.578Z" fill="white"/>
</mask>
<g mask="url(#mask2_22_2250)">
<path d="M74.1553 33.842C74.906 34.7676 75.7094 36.0598 76.5118 37.6953V33.842H80.7008V48.5035H76.5118V45.6407C76.5118 43.1434 75.8195 40.8387 74.4635 38.7728V48.5035H70.2327V33.842H74.1553Z" fill="#046C56"/>
</g>
<path d="M100.398 49.8817L84.2333 33.7168L100.398 17.5507L116.564 33.7168L100.398 49.8817Z" fill="#046C56"/>
<path d="M95.5714 15.552L83.2608 17.5507L95.5714 19.5505L88.2808 29.6697L98.3989 22.3781L100.399 49.8817L102.397 22.3781L112.517 29.6697L105.226 19.5505L117.536 17.5507L105.226 15.552L112.517 5.43275L102.397 12.7244L100.399 0.413879L98.3989 12.7244L88.2808 5.43275L95.5714 15.552Z" fill="#D3A02E"/>
<path d="M88.2804 29.6693L98.3996 22.3787L100.398 49.8813L102.398 22.3787L112.516 29.6693L100.398 17.5513L88.2804 29.6693Z" fill="white"/>
<mask id="mask3_22_2250" style="mask-type:luminance" maskUnits="userSpaceOnUse" x="-229" y="-760" width="1349" height="890">
<path d="M-228.206 129.578H1119.59V-759.593H-228.206V129.578Z" fill="white"/>
</mask>
<g mask="url(#mask3_22_2250)">
<path d="M191.84 36.4945C188.407 36.4945 186.931 37.6678 186.931 40.4392V45.7376H175.542L177.959 41.5233C179.377 38.8829 178.359 36.4945 174.904 36.4945H167.236C163.783 36.4945 162.763 38.8829 164.182 41.5233L166.628 45.7376H154.993V32.3881H150.781V48.5541L199.856 48.5519V36.4945H191.84ZM167.431 39.267H174.711L171.09 45.7376H171.052L167.431 39.267ZM195.644 45.7585H191.193V41.0258V40.656C191.193 39.682 191.249 39.2692 192.571 39.2692H195.644V45.7585Z" fill="#046C56"/>
<path d="M143.148 36.4945H138.064V39.2692H142.417C143.738 39.2692 143.794 40.656 143.794 40.656V41.0258V45.7376H136.469V48.5332H148.056V40.4392C148.056 37.6678 146.58 36.4945 143.148 36.4945Z" fill="#046C56"/>
<path d="M130.357 42.9503C130.357 44.8004 129.565 45.758 127.722 45.758H125.864C124.022 45.758 123.23 44.8004 123.23 42.9503V36.494H119.017V42.9503C119.017 46.2004 120.578 48.5558 126.129 48.5558H127.458C133.009 48.5558 134.569 46.2004 134.569 42.9503V36.494H130.357V42.9503Z" fill="#046C56"/>
</g>
<path d="M128.897 32.381H124.685V35.4287H128.897V32.381Z" fill="#046C56"/>
<mask id="mask4_22_2250" style="mask-type:luminance" maskUnits="userSpaceOnUse" x="-229" y="-760" width="1349" height="890">
<path d="M-228.206 129.578H1119.59V-759.593H-228.206V129.578Z" fill="white"/>
</mask>
<g mask="url(#mask4_22_2250)">
<path d="M106.596 58.86H105.943V58.2414H106.596V58.86ZM105.475 58.86H104.822V58.2414H105.475V58.86ZM105.962 60.599V59.7922H105.363C104.898 59.7922 104.614 60.1378 104.614 60.654C104.614 61.0843 104.868 61.4475 105.268 61.4475C105.7 61.4475 105.962 61.0722 105.962 60.599ZM107.736 62.3688H107.017C106.501 62.3688 106.081 62.0419 105.943 61.551C105.735 61.8306 105.48 61.9637 105.184 61.9637C104.423 61.9637 103.956 61.4365 103.956 60.6595C103.956 59.8285 104.423 59.3145 105.184 59.3145H106.65V61.0722C106.65 61.5015 106.87 61.7392 107.315 61.7392H107.736V62.3688Z" fill="#046C56"/>
</g>
<path d="M107.63 62.3688H108.882V61.7393H107.63V62.3688Z" fill="#046C56"/>
<mask id="mask5_22_2250" style="mask-type:luminance" maskUnits="userSpaceOnUse" x="-229" y="-760" width="1349" height="890">
<path d="M-228.206 129.578H1119.59V-759.593H-228.206V129.578Z" fill="white"/>
</mask>
<g mask="url(#mask5_22_2250)">
<path d="M110.455 63.5861H109.803V62.962H110.455V63.5861ZM110.474 61.3628C110.474 62.0364 110.14 62.3688 109.481 62.3688H108.78V61.7392H109.34C109.557 61.7392 109.695 61.6787 109.759 61.5565C109.789 61.4905 109.808 61.3573 109.808 61.157V59.8483H110.474V61.3628ZM109.333 63.5861H108.681V62.962H109.333V63.5861Z" fill="#046C56"/>
<path d="M113.85 62.3687H111.031V61.7391H113.18C113.18 61.0116 112.876 60.5868 112.278 60.4657C112.093 60.4294 111.891 60.4184 111.678 60.4184V59.8493C112.004 59.8493 112.211 59.8526 112.296 59.8603C112.378 59.8658 112.497 59.8901 112.652 59.9396C113.446 60.1883 113.845 60.7871 113.85 61.7391V62.3687Z" fill="#046C56"/>
<path d="M116.308 61.7389V60.9751C116.273 60.6471 116.071 60.4181 115.728 60.4181C115.334 60.4181 115.086 60.6724 115.086 61.0422C115.086 61.4307 115.364 61.7389 115.72 61.7389H116.308ZM117.787 62.3685H116.978C116.889 62.9815 116.455 63.2842 115.685 63.2842V62.7988C116.03 62.7988 116.25 62.6645 116.343 62.3685H115.708C114.99 62.3685 114.408 61.8104 114.408 61.0785C114.408 60.3455 114.985 59.8491 115.736 59.8491C116.463 59.8491 116.972 60.3686 116.972 61.0961V61.7389H117.787V62.3685Z" fill="#046C56"/>
</g>
<path d="M117.696 62.3688H118.948V61.7393H117.696V62.3688Z" fill="#046C56"/>
<mask id="mask6_22_2250" style="mask-type:luminance" maskUnits="userSpaceOnUse" x="-229" y="-760" width="1349" height="890">
<path d="M-228.206 129.578H1119.59V-759.593H-228.206V129.578Z" fill="white"/>
</mask>
<g mask="url(#mask6_22_2250)">
<path d="M121.959 60.533C121.692 60.3812 121.401 60.3085 121.098 60.3085C120.796 60.3085 120.487 60.3878 120.184 60.5385C120.558 60.6596 120.895 60.8852 121.193 61.2044C121.33 61.145 121.473 61.036 121.627 60.9007C121.765 60.7675 121.876 60.6475 121.959 60.533ZM123.283 62.3689H122.019C121.851 62.3689 121.673 62.326 121.49 62.2346C121.336 62.1631 121.212 62.0772 121.111 61.9694C120.676 62.2346 120.243 62.3689 119.798 62.3689H118.799V61.7393H119.787C119.982 61.7393 120.137 61.725 120.25 61.6953C120.392 61.6722 120.533 61.6183 120.676 61.5258C120.588 61.3981 120.415 61.2606 120.172 61.1153C119.929 60.9689 119.691 60.8643 119.471 60.8181V60.2304C119.988 59.9189 120.527 59.7747 121.081 59.7747C121.733 59.7747 122.298 59.9695 122.773 60.3514C122.718 60.5022 122.577 60.708 122.351 60.9689C122.108 61.243 121.882 61.4477 121.668 61.5885C121.752 61.6656 121.828 61.7085 121.905 61.725C121.935 61.7327 122.024 61.7393 122.167 61.7393H123.283V62.3689Z" fill="#046C56"/>
</g>
<path d="M123.169 62.3688H124.422V61.7393H123.169V62.3688Z" fill="#046C56"/>
<mask id="mask7_22_2250" style="mask-type:luminance" maskUnits="userSpaceOnUse" x="-229" y="-760" width="1349" height="890">
<path d="M-228.206 129.578H1119.59V-759.593H-228.206V129.578Z" fill="white"/>
</mask>
<g mask="url(#mask7_22_2250)">
<path d="M124.245 62.3687V61.7391H124.848C125.187 61.7391 125.354 61.5212 125.354 61.0842V59.8493H126.026V61.06C126.026 61.3869 125.989 61.5993 125.917 61.7028V61.7391H126.535C126.875 61.7391 127.042 61.5344 127.042 61.1194V59.8493H127.712V61.06C127.712 61.4243 127.665 61.6477 127.573 61.7391H128.222C128.561 61.7391 128.726 61.5344 128.726 61.1271V59.8493H129.396V61.049C129.396 61.3076 129.35 61.5388 129.248 61.7391H130.262V62.3687H124.245Z" fill="#046C56"/>
<path d="M131.76 61.3633C131.76 62.0358 131.427 62.3682 130.763 62.3682H130.062V61.7386H130.625C130.845 61.7386 130.983 61.6792 131.048 61.5559C131.077 61.491 131.095 61.3578 131.095 61.1564V58.7933H131.76V61.3633Z" fill="#046C56"/>
</g>
<path d="M132.372 62.3688H133.03V58.7884H132.372V62.3688Z" fill="#046C56"/>
<mask id="mask8_22_2250" style="mask-type:luminance" maskUnits="userSpaceOnUse" x="-229" y="-760" width="1349" height="890">
<path d="M-228.206 129.578H1119.59V-759.593H-228.206V129.578Z" fill="white"/>
</mask>
<g mask="url(#mask8_22_2250)">
<path d="M137.475 58.86H136.823V58.2414H137.475V58.86ZM136.354 58.86H135.7V58.2414H136.354V58.86ZM136.84 60.599V59.7922H136.242C135.778 59.7922 135.493 60.1378 135.493 60.654C135.493 61.0843 135.747 61.4475 136.147 61.4475C136.579 61.4475 136.84 61.0722 136.84 60.599ZM138.616 62.3688H137.898C137.38 62.3688 136.959 62.0419 136.823 61.551C136.614 61.8306 136.359 61.9637 136.062 61.9637C135.303 61.9637 134.834 61.4365 134.834 60.6595C134.834 59.8285 135.303 59.3145 136.062 59.3145H137.528V61.0722C137.528 61.5015 137.749 61.7392 138.193 61.7392H138.616V62.3688Z" fill="#046C56"/>
</g>
<path d="M138.509 62.3688H139.76V61.7393H138.509V62.3688Z" fill="#046C56"/>
<path d="M139.684 62.3688H140.937V61.7393H139.684V62.3688Z" fill="#046C56"/>
<mask id="mask9_22_2250" style="mask-type:luminance" maskUnits="userSpaceOnUse" x="-229" y="-760" width="1349" height="890">
<path d="M-228.206 129.578H1119.59V-759.593H-228.206V129.578Z" fill="white"/>
</mask>
<g mask="url(#mask9_22_2250)">
<path d="M142.527 63.5861H141.875V62.962H142.527V63.5861ZM143.518 62.3688H140.782V61.7392H141.417C141.613 61.7392 141.75 61.6787 141.822 61.551C141.868 61.4652 141.891 61.3199 141.891 61.1273V59.8483H142.55V61.0954C142.55 61.4234 142.504 61.6292 142.402 61.7392H143.518V62.3688ZM141.405 63.5861H140.753V62.962H141.405V63.5861Z" fill="#046C56"/>
</g>
<path d="M143.423 62.3688H144.676V61.7393H143.423V62.3688Z" fill="#046C56"/>
<mask id="mask10_22_2250" style="mask-type:luminance" maskUnits="userSpaceOnUse" x="-229" y="-760" width="1349" height="890">
<path d="M-228.206 129.578H1119.59V-759.593H-228.206V129.578Z" fill="white"/>
</mask>
<g mask="url(#mask10_22_2250)">
<path d="M146.208 63.5861H145.561V62.962H146.208V63.5861ZM146.214 61.3628C146.214 62.0364 145.88 62.3688 145.223 62.3688H144.581V61.7392H145.086C145.305 61.7392 145.442 61.6787 145.506 61.5565C145.536 61.4905 145.554 61.3573 145.554 61.157V59.8483H146.214V61.3628Z" fill="#046C56"/>
<path d="M149.175 62.3687H148.114C148.012 62.963 147.472 63.291 146.665 63.291V62.7572C147.217 62.7572 147.491 62.503 147.491 61.9692V59.8493H148.154V61.7391H149.175V62.3687Z" fill="#046C56"/>
<path d="M152.101 60.5331C151.835 60.3812 151.544 60.3085 151.241 60.3085C150.938 60.3085 150.63 60.3878 150.328 60.5386C150.702 60.6596 151.04 60.8853 151.335 61.2045C151.473 61.145 151.614 61.0361 151.768 60.9007C151.907 60.7675 152.019 60.6475 152.101 60.5331ZM153.425 62.3689H152.162C151.996 62.3689 151.817 62.326 151.633 62.2347C151.48 62.1631 151.353 62.0773 151.254 61.9694C150.82 62.2347 150.385 62.3689 149.941 62.3689H148.945V61.7394H149.929C150.124 61.7394 150.28 61.7251 150.392 61.6953C150.534 61.6722 150.679 61.6183 150.82 61.5258C150.73 61.3982 150.56 61.2606 150.315 61.1153C150.072 60.9689 149.834 60.8644 149.614 60.8181V60.2304C150.131 59.9189 150.672 59.7747 151.222 59.7747C151.876 59.7747 152.44 59.9696 152.916 60.3515C152.861 60.5023 152.718 60.7081 152.495 60.9689C152.251 61.243 152.025 61.4477 151.811 61.5886C151.895 61.6656 151.972 61.7085 152.049 61.7251C152.079 61.7328 152.168 61.7394 152.311 61.7394H153.425V62.3689Z" fill="#046C56"/>
</g>
<path d="M153.312 62.3688H154.565V61.7393H153.312V62.3688Z" fill="#046C56"/>
<mask id="mask11_22_2250" style="mask-type:luminance" maskUnits="userSpaceOnUse" x="-229" y="-760" width="1349" height="890">
<path d="M-228.206 129.578H1119.59V-759.593H-228.206V129.578Z" fill="white"/>
</mask>
<g mask="url(#mask11_22_2250)">
<path d="M156.109 61.3633C156.109 62.0358 155.778 62.3682 155.111 62.3682H154.411V61.7387H154.975C155.194 61.7387 155.331 61.6792 155.396 61.556C155.426 61.491 155.443 61.3578 155.443 61.1564V58.7934H156.109V61.3633Z" fill="#046C56"/>
</g>
<path d="M156.72 62.3688H157.379V58.7884H156.72V62.3688Z" fill="#046C56"/>
<mask id="mask12_22_2250" style="mask-type:luminance" maskUnits="userSpaceOnUse" x="-229" y="-760" width="1349" height="890">
<path d="M-228.206 129.578H1119.59V-759.593H-228.206V129.578Z" fill="white"/>
</mask>
<g mask="url(#mask12_22_2250)">
<path d="M161.403 59.3398H160.752V58.7257H161.403V59.3398ZM163.867 62.3688H162.668C162.503 62.6538 162.281 62.8784 162.002 63.0358C161.713 63.2108 161.403 63.29 161.065 63.29C160.549 63.29 160.11 63.1084 159.748 62.7507C159.372 62.3809 159.184 61.9329 159.184 61.3936V59.8483H159.854V61.3199C159.854 61.6842 159.956 61.9935 160.151 62.2532C160.382 62.5504 160.684 62.6968 161.065 62.6968C161.439 62.6968 161.742 62.5504 161.973 62.2532C162.169 61.9935 162.264 61.6842 162.264 61.3199V59.8483H162.935V61.3936C162.935 61.5081 162.924 61.6226 162.899 61.7392H163.867V62.3688Z" fill="#046C56"/>
<path d="M165.363 63.5861H164.709V62.962H165.363V63.5861ZM165.381 61.3628C165.381 62.0364 165.049 62.3688 164.39 62.3688H163.689V61.7392H164.248C164.466 61.7392 164.603 61.6787 164.67 61.5565C164.698 61.4905 164.717 61.3573 164.717 61.157V59.8483H165.381V61.3628ZM164.243 63.5861H163.589V62.962H164.243V63.5861Z" fill="#046C56"/>
<path d="M169.791 62.3687H165.939V61.7391H168.087C168.087 61.0116 167.786 60.5868 167.184 60.4657C167.001 60.4294 166.8 60.4184 166.585 60.4184V59.8493C166.912 59.8493 167.12 59.8526 167.203 59.8603C167.286 59.8658 167.406 59.8901 167.559 59.9396C168.355 60.1883 168.752 60.7871 168.759 61.7391H169.791V62.3687Z" fill="#046C56"/>
</g>
<path d="M169.572 62.3688H170.824V61.7393H169.572V62.3688Z" fill="#046C56"/>
<mask id="mask13_22_2250" style="mask-type:luminance" maskUnits="userSpaceOnUse" x="-229" y="-760" width="1349" height="890">
<path d="M-228.206 129.578H1119.59V-759.593H-228.206V129.578Z" fill="white"/>
</mask>
<g mask="url(#mask13_22_2250)">
<path d="M173.834 60.533C173.567 60.3812 173.276 60.3085 172.972 60.3085C172.67 60.3085 172.361 60.3878 172.059 60.5385C172.433 60.6596 172.772 60.8852 173.068 61.2044C173.203 61.145 173.346 61.036 173.5 60.9007C173.638 60.7675 173.75 60.6475 173.834 60.533ZM175.158 62.3689H173.893C173.726 62.3689 173.549 62.326 173.364 62.2346C173.211 62.1631 173.086 62.0772 172.985 61.9694C172.552 62.2346 172.119 62.3689 171.675 62.3689H170.675V61.7393H171.66C171.856 61.7393 172.01 61.725 172.125 61.6953C172.267 61.6722 172.41 61.6183 172.552 61.5258C172.463 61.3981 172.291 61.2606 172.047 61.1153C171.804 60.9689 171.567 60.8643 171.348 60.8181V60.2304C171.863 59.9189 172.403 59.7747 172.956 59.7747C173.607 59.7747 174.172 59.9695 174.647 60.3514C174.595 60.5022 174.451 60.708 174.225 60.9689C173.981 61.243 173.756 61.4477 173.543 61.5885C173.626 61.6656 173.703 61.7085 173.781 61.725C173.81 61.7327 173.899 61.7393 174.042 61.7393H175.158V62.3689Z" fill="#046C56"/>
</g>
<path d="M175.045 62.3688H176.298V61.7393H175.045V62.3688Z" fill="#046C56"/>
<mask id="mask14_22_2250" style="mask-type:luminance" maskUnits="userSpaceOnUse" x="-229" y="-760" width="1349" height="890">
<path d="M-228.206 129.578H1119.59V-759.593H-228.206V129.578Z" fill="white"/>
</mask>
<g mask="url(#mask14_22_2250)">
<path d="M177.899 59.3332H177.247V58.7213H177.899V59.3332ZM178.898 62.3688H176.155V61.7392H176.771C176.967 61.7392 177.098 61.6787 177.17 61.551C177.217 61.4652 177.241 61.3199 177.241 61.1273V59.8483H177.899V61.0953C177.899 61.4233 177.851 61.6291 177.758 61.7392H178.898V62.3688ZM176.771 59.3332H176.119V58.7213H176.771V59.3332Z" fill="#046C56"/>
<path d="M180.399 61.3633C180.399 62.0358 180.066 62.3682 179.402 62.3682H178.701V61.7387H179.265C179.486 61.7387 179.622 61.6792 179.686 61.556C179.718 61.491 179.735 61.3578 179.735 61.1564V58.7934H180.399V61.3633Z" fill="#046C56"/>
</g>
<path d="M181.011 62.3688H181.67V58.7884H181.011V62.3688Z" fill="#046C56"/>
<mask id="mask15_22_2250" style="mask-type:luminance" maskUnits="userSpaceOnUse" x="-229" y="-760" width="1349" height="890">
<path d="M-228.206 129.578H1119.59V-759.593H-228.206V129.578Z" fill="white"/>
</mask>
<g mask="url(#mask15_22_2250)">
<path d="M186.116 58.86H185.462V58.2414H186.116V58.86ZM184.992 58.86H184.34V58.2414H184.992V58.86ZM185.48 60.599V59.7922H184.881C184.417 59.7922 184.133 60.1378 184.133 60.654C184.133 61.0843 184.389 61.4475 184.786 61.4475C185.22 61.4475 185.48 61.0722 185.48 60.599ZM187.256 62.3688H186.536C186.021 62.3688 185.598 62.0419 185.463 61.551C185.255 61.8306 184.999 61.9637 184.703 61.9637C183.943 61.9637 183.474 61.4365 183.474 60.6595C183.474 59.8285 183.943 59.3145 184.703 59.3145H186.169V61.0722C186.169 61.5015 186.388 61.7392 186.834 61.7392H187.256V62.3688Z" fill="#046C56"/>
</g>
<path d="M187.148 62.3688H188.402V61.7393H187.148V62.3688Z" fill="#046C56"/>
<mask id="mask16_22_2250" style="mask-type:luminance" maskUnits="userSpaceOnUse" x="-229" y="-760" width="1349" height="890">
<path d="M-228.206 129.578H1119.59V-759.593H-228.206V129.578Z" fill="white"/>
</mask>
<g mask="url(#mask16_22_2250)">
<path d="M192.224 61.9808V62.3683H188.252V61.7387H191.511C191.511 61.3942 191.406 61.1025 191.191 60.8549C190.94 60.5764 190.598 60.4355 190.163 60.4355H188.793L189.963 58.7934H190.752L189.951 59.8489H190.242C190.68 59.8489 191.06 59.9502 191.38 60.1571C191.945 60.5093 192.224 61.1091 192.224 61.9808Z" fill="#046C56"/>
<path d="M195.173 62.3687H194.111C194.011 62.963 193.471 63.291 192.664 63.291V62.7572C193.214 62.7572 193.488 62.503 193.488 61.9692V59.8493H194.152V61.7391H195.173V62.3687Z" fill="#046C56"/>
<path d="M198.206 58.7268H198.856V59.341H198.206V58.7268ZM197.649 57.8474H198.302V58.4649H197.649V57.8474ZM197.087 58.7268H197.733V59.341H197.087V58.7268ZM194.967 61.7392H195.452C195.791 61.7392 195.956 61.5202 195.956 61.0844V59.8484H196.629V61.0602C196.629 61.387 196.594 61.5995 196.522 61.7029V61.7392H197.139C197.477 61.7392 197.644 61.5345 197.644 61.1196V59.8484H198.313V61.0602C198.313 61.4234 198.265 61.6479 198.176 61.7392H198.825C199.162 61.7392 199.329 61.5345 199.329 61.1273V59.8484H200V61.0491C200 61.8471 199.525 62.3688 198.848 62.3688H194.967V61.7392Z" fill="#046C56"/>
<path d="M0.163023 62.1514V61.3579C0.526231 61.5626 0.823402 61.666 1.10186 61.666C1.44966 61.666 1.71271 61.4844 1.71271 61.1201V61.1025C1.71271 60.7987 1.60485 60.5753 1.07765 59.9865C0.368841 59.1984 0.113495 58.8605 0.113495 58.2607V58.2409C0.113495 57.4539 0.691326 56.9333 1.43205 56.9333C1.81837 56.9333 2.06601 57.0071 2.32026 57.127V57.9206C2.00878 57.7445 1.78535 57.6597 1.5223 57.6597C1.19321 57.6597 0.929062 57.8656 0.929062 58.2068V58.2167C0.929062 58.5204 1.03802 58.6778 1.56413 59.259C2.33016 60.1031 2.52608 60.4597 2.52608 61.0651V61.0783C2.52608 61.8664 1.92733 62.3936 1.1756 62.3936C0.798087 62.3936 0.467898 62.2956 0.163023 62.1514Z" fill="#046C56"/>
<path d="M5.36 61.2119V60.4789C5.23563 60.4239 5.07163 60.3689 4.93075 60.3689C4.63468 60.3689 4.46299 60.5989 4.46299 61.0413V61.1327C4.46299 61.5884 4.62808 61.7997 4.88343 61.7997C5.15418 61.7997 5.36 61.5509 5.36 61.2119ZM3.70465 61.1932V61.0909C3.70465 60.217 4.10858 59.7866 4.73374 59.7866C4.96597 59.7866 5.17179 59.8494 5.36 59.9396V59.6171C5.36 59.1527 5.12116 58.9017 4.68421 58.9017C4.41346 58.9017 4.17462 58.9876 3.92698 59.091V58.3943C4.20764 58.2777 4.46299 58.2171 4.81629 58.2171C5.65607 58.2171 6.13374 58.6849 6.13374 59.5632V62.339H5.35009V61.8602C5.1795 62.2168 4.93956 62.4094 4.59396 62.4094C4.07556 62.4094 3.70465 61.9262 3.70465 61.1932Z" fill="#046C56"/>
<path d="M7.54086 61.2837V58.2668H8.32451V61.1274C8.32451 61.5379 8.48961 61.7635 8.76036 61.7635C9.04102 61.7635 9.24684 61.5148 9.24684 61.1087V58.2668H10.0283V62.3392H9.24684V61.823C9.08175 62.1444 8.84291 62.4096 8.43127 62.4096C7.86335 62.4096 7.54086 61.9694 7.54086 61.2837Z" fill="#046C56"/>
<path d="M13.2239 60.4298V60.1745C13.2239 59.3457 12.9928 58.8835 12.6879 58.8835C12.3764 58.8835 12.186 59.3512 12.186 60.1932V60.4243C12.186 61.2663 12.3764 61.7198 12.6879 61.7198C12.9928 61.7198 13.2239 61.2729 13.2239 60.4298ZM11.4045 60.4552V60.1569C11.4045 58.7459 11.8481 58.2 12.3995 58.2C12.8288 58.2 13.0599 58.539 13.2074 58.8471V56.9453H13.9987V62.3394H13.2074V61.7506C13.0599 62.0588 12.8288 62.4099 12.3995 62.4099C11.8481 62.4099 11.4045 61.8717 11.4045 60.4552Z" fill="#046C56"/>
</g>
<path d="M15.4727 57.7373H16.2794V56.9449H15.4727V57.7373ZM15.488 62.3391H16.2717V58.2667H15.488V62.3391Z" fill="#046C56"/>
<path d="M21.6394 60.4661L21.2201 58.321L20.7996 60.4661H21.6394ZM20.7996 56.976H21.6647L22.8105 62.3394H21.9938L21.7638 61.1496H20.6764L20.4463 62.3394H19.655L20.7996 56.976Z" fill="#046C56"/>
<mask id="mask17_22_2250" style="mask-type:luminance" maskUnits="userSpaceOnUse" x="-229" y="-760" width="1349" height="890">
<path d="M-228.206 129.578H1119.59V-759.593H-228.206V129.578Z" fill="white"/>
</mask>
<g mask="url(#mask17_22_2250)">
<path d="M24.0367 58.2667H24.8192V58.8006C24.959 58.4484 25.2056 58.1996 25.6172 58.2172V59.0845H25.6029C25.1142 59.0845 24.8192 59.3806 24.8192 59.9991V62.3391H24.0367V58.2667Z" fill="#046C56"/>
<path d="M28.2536 61.2119V60.4789C28.1293 60.4239 27.9653 60.3688 27.8244 60.3688C27.5283 60.3688 27.3577 60.5989 27.3577 61.0413V61.1327C27.3577 61.5883 27.5195 61.7996 27.7749 61.7996C28.0478 61.7996 28.2536 61.5509 28.2536 61.2119ZM26.5972 61.1932V61.0908C26.5972 60.2169 27.0022 59.7866 27.6285 59.7866C27.8574 59.7866 28.0654 59.8493 28.2536 59.9396V59.6171C28.2536 59.1526 28.0148 58.9017 27.5779 58.9017C27.3071 58.9017 27.0672 58.9875 26.8195 59.091V58.3943C27.1002 58.2776 27.3577 58.2171 27.7099 58.2171C28.5497 58.2171 29.0274 58.6849 29.0274 59.5632V62.339H28.2448V61.8602C28.072 62.2168 27.8332 62.4094 27.4865 62.4094C26.9692 62.4094 26.5972 61.9262 26.5972 61.1932Z" fill="#046C56"/>
<path d="M32.2717 60.4244V60.1933C32.2717 59.3458 32.0736 58.8835 31.7698 58.8835C31.465 58.8835 31.2338 59.3458 31.2338 60.1746V60.4299C31.2338 61.2664 31.465 61.7198 31.7698 61.7198C32.0736 61.7198 32.2717 61.2664 32.2717 60.4244ZM31.2426 61.7628V62.3395H30.4601V56.9453H31.2426V58.8604C31.3912 58.5511 31.6301 58.2 32.0582 58.2C32.6008 58.2 33.0532 58.7327 33.0532 60.157V60.4552C33.0532 61.8596 32.6008 62.4099 32.0582 62.4099C31.6301 62.4099 31.4 62.072 31.2426 61.7628Z" fill="#046C56"/>
</g>
<path d="M34.4365 57.7373H35.2444V56.9449H34.4365V57.7373ZM34.4542 62.3391H35.2378V58.2667H34.4542V62.3391Z" fill="#046C56"/>
<mask id="mask18_22_2250" style="mask-type:luminance" maskUnits="userSpaceOnUse" x="-229" y="-760" width="1349" height="890">
<path d="M-228.206 129.578H1119.59V-759.593H-228.206V129.578Z" fill="white"/>
</mask>
<g mask="url(#mask18_22_2250)">
<path d="M38.2016 61.2119V60.4789C38.0772 60.4239 37.9121 60.3688 37.7734 60.3688C37.4774 60.3688 37.3035 60.5989 37.3035 61.0413V61.1327C37.3035 61.5883 37.4686 61.7996 37.7228 61.7996C37.9947 61.7996 38.2016 61.5509 38.2016 61.2119ZM36.5473 61.1932V61.0908C36.5473 60.2169 36.9491 59.7866 37.5753 59.7866C37.8065 59.7866 38.0112 59.8493 38.2016 59.9396V59.6171C38.2016 59.1526 37.9616 58.9017 37.5247 58.9017C37.2539 58.9017 37.0162 58.9875 36.7675 59.091V58.3943C37.0481 58.2776 37.3035 58.2171 37.6568 58.2171C38.4988 58.2171 38.9753 58.6849 38.9753 59.5632V62.339H38.1939V61.8602C38.02 62.2168 37.78 62.4094 37.4333 62.4094C36.916 62.4094 36.5473 61.9262 36.5473 61.1932Z" fill="#046C56"/>
<path d="M40.4077 58.2668H41.1902V58.7874C41.3553 58.465 41.5931 58.1997 42.0069 58.1997C42.5748 58.1997 42.8962 58.6422 42.8962 59.3267V62.3392H42.1137V59.4841C42.1137 59.0659 41.9486 58.8469 41.6756 58.8469C41.3972 58.8469 41.1902 59.0912 41.1902 59.4962V62.3392H40.4077V58.2668Z" fill="#046C56"/>
</g>
<path d="M46.5104 56.9865H47.3425L48.1581 59.2593L48.9736 56.9865H49.8046V62.3388H49.021V58.6957L48.1658 61.0489H48.1405L47.2853 58.6957V62.3388H46.5104V56.9865Z" fill="#046C56"/>
<path d="M51.3026 57.7373H52.1093V56.9449H51.3026V57.7373ZM51.3191 62.3391H52.1017V58.2667H51.3191V62.3391Z" fill="#046C56"/>
<mask id="mask19_22_2250" style="mask-type:luminance" maskUnits="userSpaceOnUse" x="-229" y="-760" width="1349" height="890">
<path d="M-228.206 129.578H1119.59V-759.593H-228.206V129.578Z" fill="white"/>
</mask>
<g mask="url(#mask19_22_2250)">
<path d="M53.5836 58.2668H54.3662V58.7874C54.5313 58.465 54.7701 58.1997 55.1807 58.1997C55.7497 58.1997 56.0722 58.6422 56.0722 59.3267V62.3392H55.2896V59.4841C55.2896 59.0659 55.1245 58.8469 54.8527 58.8469C54.5731 58.8469 54.3662 59.0912 54.3662 59.4962V62.3392H53.5836V58.2668Z" fill="#046C56"/>
</g>
<path d="M57.5201 57.7373H58.3268V56.9449H57.5201V57.7373ZM57.5377 62.3391H58.3191V58.2667H57.5377V62.3391Z" fill="#046C56"/>
<mask id="mask20_22_2250" style="mask-type:luminance" maskUnits="userSpaceOnUse" x="-229" y="-760" width="1349" height="890">
<path d="M-228.206 129.578H1119.59V-759.593H-228.206V129.578Z" fill="white"/>
</mask>
<g mask="url(#mask20_22_2250)">
<path d="M59.8014 58.2668H60.5839V58.7874C60.7468 58.465 60.9878 58.1997 61.3984 58.1997C61.9685 58.1997 62.2888 58.6422 62.2888 59.3267V62.3392H61.5073V59.4841C61.5073 59.0659 61.3422 58.8469 61.0693 58.8469C60.7886 58.8469 60.5839 59.0912 60.5839 59.4962V62.3392H59.8014V58.2668Z" fill="#046C56"/>
<path d="M65.459 60.1703V60.1372C65.459 59.3206 65.2124 58.8836 64.9241 58.8836C64.6269 58.8836 64.4222 59.3151 64.4222 60.1372V60.1636C64.4222 60.9924 64.6269 61.4173 64.9241 61.4173C65.2124 61.4173 65.459 60.988 65.459 60.1703ZM63.8202 63.2113V62.5333C64.0997 62.6291 64.4629 62.7072 64.6841 62.7072C65.1629 62.7072 65.4414 62.508 65.4414 62.0105V61.4481C65.295 61.7629 65.0562 62.1019 64.6269 62.1019C64.0843 62.1019 63.6396 61.5625 63.6396 60.1747V60.1273C63.6396 58.7394 64.0843 58.2001 64.6269 58.2001C65.0562 58.2001 65.295 58.5314 65.4414 58.8473V58.2673H66.2338V62.0589C66.2338 62.9813 65.6648 63.3511 64.7689 63.3511C64.3958 63.3511 64.125 63.2971 63.8202 63.2113Z" fill="#046C56"/>
<path d="M69.7574 59.7514V59.5819C69.7574 57.7328 70.4992 56.9503 71.3974 56.9503C71.6769 56.9503 71.8244 56.9866 72.0302 57.0779V57.8605C71.8244 57.7449 71.6593 57.6844 71.47 57.6844C70.9692 57.6844 70.5818 58.1808 70.5818 59.5753V59.7558C70.5818 61.1987 70.9692 61.6477 71.4799 61.6477C71.6505 61.6477 71.8409 61.5927 72.0467 61.4783V62.2168C71.8409 62.3323 71.6274 62.3808 71.3478 62.3808C70.4497 62.3808 69.7574 61.5883 69.7574 59.7514Z" fill="#046C56"/>
<path d="M75.0947 60.4121V60.2008C75.0947 59.3203 74.8712 58.8547 74.5587 58.8547C74.2373 58.8547 74.0138 59.3203 74.0138 60.2008V60.4121C74.0138 61.2959 74.2373 61.7626 74.5587 61.7626C74.8712 61.7626 75.0947 61.2959 75.0947 60.4121ZM73.2324 60.4055V60.2173C73.2324 58.9141 73.8091 58.2064 74.5587 58.2064C75.3082 58.2064 75.8761 58.9141 75.8761 60.2173V60.4055C75.8761 61.7086 75.2994 62.4097 74.5587 62.4097C73.8091 62.4097 73.2324 61.7086 73.2324 60.4055Z" fill="#046C56"/>
<path d="M77.2349 58.2668H78.0186V58.7874C78.1969 58.4418 78.4379 58.1997 78.8253 58.1997C79.2271 58.1997 79.4505 58.4363 79.598 58.7335C79.7631 58.4782 80.0184 58.1997 80.4378 58.1997C80.9485 58.1997 81.3766 58.5882 81.3766 59.34V62.3392H80.5963V59.4841C80.5963 59.0659 80.4378 58.8469 80.1681 58.8469C79.894 58.8469 79.6981 59.0912 79.6981 59.4962V62.3392H78.9145V59.4841C78.9145 59.0659 78.7582 58.8469 78.4863 58.8469C78.2156 58.8469 78.0186 59.0912 78.0186 59.4962V62.3392H77.2349V58.2668Z" fill="#046C56"/>
<path d="M84.6473 60.4244V60.1932C84.6473 59.3458 84.4481 58.8835 84.1443 58.8835C83.8394 58.8835 83.6083 59.3458 83.6083 60.1745V60.4299C83.6083 61.2664 83.8394 61.7198 84.1443 61.7198C84.4481 61.7198 84.6473 61.2664 84.6473 60.4244ZM82.8357 58.2671H83.6171V58.8604C83.7657 58.5511 84.0045 58.2 84.4327 58.2C84.9764 58.2 85.4287 58.7327 85.4287 60.1569V60.4552C85.4287 61.8596 84.9764 62.4099 84.4327 62.4099C84.0045 62.4099 83.7734 62.072 83.6171 61.7627V63.3322H82.8357V58.2671Z" fill="#046C56"/>
<path d="M88.2861 61.2119V60.4789C88.1618 60.4238 87.9978 60.3688 87.8591 60.3688C87.5619 60.3688 87.3891 60.5988 87.3891 61.0413V61.1326C87.3891 61.5883 87.5542 61.7996 87.8096 61.7996C88.0803 61.7996 88.2861 61.5509 88.2861 61.2119ZM86.6319 61.1932V61.0908C86.6319 60.2169 87.0347 59.7866 87.661 59.7866C87.8921 59.7866 88.0979 59.8493 88.2861 59.9395V59.6171C88.2861 59.1526 88.0473 58.9017 87.6126 58.9017C87.3396 58.9017 87.0997 58.9875 86.8542 59.091V58.3943C87.1338 58.2776 87.3891 58.2171 87.7424 58.2171C88.5822 58.2171 89.0599 58.6848 89.0599 59.5631V62.3389H88.2784V61.8601C88.1056 62.2168 87.8657 62.4094 87.519 62.4094C87.0017 62.4094 86.6319 61.9262 86.6319 61.1932Z" fill="#046C56"/>
<path d="M90.4929 58.2668H91.2754V58.7874C91.4405 58.465 91.6782 58.1997 92.0921 58.1997C92.66 58.1997 92.9803 58.6422 92.9803 59.3267V62.3392H92.1988V59.4841C92.1988 59.0659 92.0337 58.8469 91.7608 58.8469C91.4823 58.8469 91.2754 59.0912 91.2754 59.4962V62.3392H90.4929V58.2668Z" fill="#046C56"/>
</g>
<path d="M95.0966 62.2296L94.1489 58.2673H94.9238L95.4752 60.9881L96.0585 58.2673H96.8268L95.583 63.3324H94.8247L95.0966 62.2296Z" fill="#046C56"/>
</g>
</g>
<defs>
<clipPath id="clip0_22_2250">
<rect width="200" height="63.1722" fill="white" transform="translate(0 0.413879)"/>
</clipPath>
</defs>
</svg>
